<svg width="214" height="151" viewBox="0 0 214 151" fill="none" xmlns="http://www.w3.org/2000/svg">
<path d="M99.8509 91.4342L99.6597 92.3824C99.4685 92.7011 99.3092 92.8525 99.1897 92.8525C99.0622 92.8525 98.9666 92.7569 98.9029 92.5656C98.7117 92.1832 98.3373 91.9999 97.7637 91.9999H97.0069C95.1746 91.9999 93.5176 92.4143 92.0358 93.235C90.5541 94.0557 89.2078 95.1951 88.0128 96.6452C86.3717 98.6691 85.0254 100.597 83.9898 102.422C82.9462 104.255 81.9822 106.183 81.098 108.199C80.2774 110.031 79.4728 112.008 78.6841 114.119C77.8955 116.239 77.1865 118.414 76.5491 120.661C75.9198 122.908 75.3622 125.131 74.8921 127.338C74.4221 129.553 74.0875 131.696 73.8963 133.784C73.8326 134.477 73.7848 135.131 73.7529 135.728C73.7211 136.326 73.7051 136.947 73.7051 137.577C73.7051 140.039 74.0397 142.222 74.7009 144.118C75.3621 146.015 76.4535 147.338 77.9672 148.094C79.1064 148.66 80.2057 148.947 81.2812 148.947C82.2292 148.947 83.1772 148.772 84.1252 148.429C85.0732 148.079 85.9893 147.624 86.8736 147.059C88.7059 145.855 90.1558 144.342 91.2312 142.509C91.2949 142.254 91.4543 142.126 91.7012 142.126C91.8287 142.126 91.8924 142.222 91.8924 142.413L91.7012 142.979C91.1914 143.736 90.5302 144.589 89.7096 145.537C88.8891 146.485 88.1004 147.21 87.3436 147.72C85.9495 148.732 84.4837 149.521 82.9382 150.086C81.3927 150.652 79.7994 150.939 78.1583 150.939C76.6447 150.939 75.2188 150.684 73.8963 150.182C72.0003 149.425 70.6779 148.158 69.9131 146.389C69.1563 144.62 68.7739 142.597 68.7739 140.326C68.7739 139.76 68.7899 139.186 68.8217 138.621C68.8536 138.055 68.9014 137.449 68.9651 136.82C69.2838 134.166 69.8813 131.37 70.7655 128.437C71.6498 125.497 72.6934 122.517 73.8884 119.481C74.5177 117.968 75.1789 116.486 75.88 115.027C76.573 113.577 77.2661 112.119 77.9672 110.669C79.4808 107.824 80.62 105.792 81.3768 104.557C82.1336 103.322 82.516 102.645 82.516 102.518C82.516 102.454 82.4841 102.422 82.4204 102.422C82.2929 102.422 82.1655 102.486 82.038 102.613C80.9625 103.689 79.7835 104.924 78.485 106.31C77.1864 107.697 76.0074 109.027 74.932 110.286C73.4184 111.992 71.5861 114.159 69.4352 116.78C67.2842 119.402 65.0935 122.135 62.8549 124.979C60.6084 127.824 58.4973 130.637 56.5057 133.409C54.5141 136.19 52.9208 138.557 51.7258 140.517C51.3434 141.146 50.969 141.8 50.5866 142.461C50.2043 143.122 49.9573 143.744 49.8298 144.31C49.7661 144.939 49.4156 145.417 48.7862 145.728C48.2764 146.047 47.663 146.357 46.938 146.676C46.2131 146.995 45.5041 147.369 44.803 147.816C44.6756 147.943 44.5162 148.007 44.333 148.007C44.0781 148.007 43.9506 147.879 43.9506 147.624V147.338L44.6118 145.346C44.7393 145.091 44.819 144.764 44.8508 144.35C44.8827 143.935 44.9305 143.545 44.9942 143.162C45.1854 140.445 45.281 137.633 45.281 134.732C45.281 133.282 45.281 131.872 45.281 130.517C45.281 129.163 45.3129 127.88 45.3766 126.677C45.3766 125.92 45.3925 125.147 45.4244 124.358C45.4563 123.569 45.5041 122.764 45.5678 121.944L45.0978 122.605C43.8311 124.438 42.1263 126.461 39.9834 128.669C37.8324 130.884 35.6576 132.9 33.4429 134.732C31.4832 136.374 29.3243 137.935 26.9503 139.425C24.5843 140.907 21.9793 142.126 19.1353 143.075C16.9206 143.832 14.6821 144.214 12.4117 144.214C10.6431 144.214 8.9861 143.975 7.44062 143.505C5.89513 143.035 4.54881 142.262 3.41758 141.186C2.53331 140.366 1.80838 139.338 1.23479 138.103C0.661214 136.868 0.286787 135.656 0.0955929 134.453C0.0318617 134.262 0 133.983 0 133.601V132.748C0 131.8 0.0955973 130.82 0.286791 129.808C0.477985 128.796 0.788676 127.848 1.23479 126.963C1.73668 125.824 2.37398 124.613 3.13079 123.314C3.8876 122.023 4.61254 120.836 5.31359 119.76C5.37732 119.569 5.53664 119.474 5.7836 119.474C5.91107 119.474 5.9748 119.569 5.9748 119.76C5.9748 119.952 5.91107 120.111 5.7836 120.23C5.09053 120.987 4.43728 122.095 3.8398 123.545C3.24232 125.003 2.9396 126.358 2.9396 127.617V128.183C2.9396 129.696 3.14672 131.123 3.55301 132.445C3.95929 133.776 4.61254 134.876 5.49681 135.76C7.01043 137.401 8.71524 138.589 10.6112 139.314C12.5072 140.039 14.459 140.405 16.4825 140.405C19.8921 140.405 23.3973 139.521 26.9981 137.752C28.6392 136.931 30.2325 135.951 31.7859 134.812C33.3314 133.672 34.7096 132.573 35.9046 131.497C37.6094 129.92 39.2345 128.31 40.78 126.669C42.3255 125.027 43.6718 123.354 44.803 121.649L45.5598 120.509C45.6873 117.856 45.8626 115.266 46.0777 112.741C46.3007 110.215 46.5955 107.976 46.9779 106.016C47.7347 102.287 49.2164 98.6611 51.4311 95.1154C51.9967 94.231 52.6499 93.2828 53.3749 92.2708C54.0998 91.2589 54.7132 90.4063 55.2231 89.7131C55.5417 89.3944 55.8206 89.243 56.0755 89.243C56.3942 89.243 56.7048 89.4024 57.0235 89.7131C57.7803 90.5976 58.1627 91.5776 58.1627 92.6533C58.1627 93.1553 58.1308 93.5059 58.0671 93.6971C57.6847 96.2229 57.1032 98.6691 56.3145 101.044C55.5258 103.41 54.7531 105.482 53.9963 107.251C53.3032 108.709 52.5942 110.191 51.8613 111.705C51.1363 113.219 50.2999 114.741 49.3519 116.254C49.3519 116.764 49.3359 117.234 49.3041 117.673C49.2722 118.119 49.2563 118.589 49.2563 119.091V121.274C49.2563 121.904 49.2722 122.541 49.3041 123.171C49.3359 123.8 49.3519 124.469 49.3519 125.163V130.939C49.3519 132.39 49.3359 133.832 49.3041 135.25C49.2722 136.668 49.32 138.047 49.4474 139.37C49.4474 139.935 49.6068 140.222 49.9175 140.222C50.2361 140.222 50.5149 139.999 50.7699 139.561C52.156 137.601 53.8768 135.266 55.9321 132.549C57.9874 129.832 60.1145 127.083 62.3291 124.302C64.5358 121.521 66.7027 118.836 68.8217 116.246C70.9408 113.657 72.781 111.474 74.3663 109.705C75.8162 108.063 77.3856 106.358 79.0586 104.589C80.7315 102.82 82.4204 101.02 84.1252 99.187C85.9575 97.1632 87.6304 95.3783 89.144 93.8326C90.6576 92.2868 92.2668 90.7489 93.9717 89.235C94.9834 88.4143 95.9951 88 97.0069 88C97.8911 88 98.5842 88.3506 99.094 89.0438C99.5959 89.7609 99.8509 90.5498 99.8509 91.4342ZM55.9799 96.2628C55.9799 95.1871 55.8206 94.4301 55.5099 93.9919C55.1275 93.4899 54.7212 93.235 54.2751 93.235C53.829 93.235 53.4864 93.4581 53.2315 93.8963C52.3472 95.2827 51.686 96.8684 51.2399 98.6372C50.7938 100.406 50.4193 102.366 50.1007 104.51C49.9732 105.585 49.8298 106.781 49.6705 108.111C49.5112 109.442 49.3996 110.605 49.3359 111.617C49.2722 112.629 49.2881 113.322 49.3837 113.705C49.4793 114.087 49.7183 113.896 50.0927 113.139C50.4751 112.382 50.9292 111.466 51.4629 110.39C51.9967 109.314 52.5384 108.199 53.0722 107.028C53.6059 105.856 54.0839 104.693 54.4902 103.522C54.8965 102.35 55.1992 101.33 55.3904 100.438C55.5178 99.7448 55.6453 99.0356 55.7728 98.3026C55.9162 97.5775 55.9799 96.9002 55.9799 96.2628Z" fill="#FFF0F0"/>
<path d="M123.814 132.748C122.738 134.517 121.48 136.047 120.022 137.346C118.564 138.644 117.034 139.744 115.425 140.66C113.816 141.577 112.215 142.318 110.637 142.883C109.06 143.449 107.602 143.863 106.28 144.118C103.125 144.812 100.815 144.572 99.3648 143.409C97.907 142.238 97.3732 140.549 97.7556 138.342C97.8831 137.33 98.3053 136.118 99.0382 134.692C99.7632 133.274 100.695 131.864 101.834 130.477C102.974 129.091 104.232 127.776 105.626 126.541C107.013 125.306 108.407 124.318 109.793 123.553C111.306 122.796 112.589 122.493 113.633 122.653C114.676 122.812 115.194 123.362 115.194 124.31C115.194 125.003 114.907 125.768 114.342 126.581C112.956 128.668 111.075 130.573 108.701 132.31C106.335 134.047 103.946 135.64 101.548 137.099C101.046 139.186 101.516 140.7 102.966 141.648C103.914 142.341 105.204 142.676 106.853 142.644C108.494 142.612 110.279 142.214 112.207 141.457C114.135 140.7 116.094 139.545 118.078 137.999C120.07 136.453 121.854 134.509 123.431 132.174C123.686 131.856 123.838 131.808 123.901 132.031C123.973 132.262 123.941 132.493 123.814 132.748ZM112.541 126.023C113.234 124.884 113.314 124.111 112.78 123.704C112.247 123.298 111.41 123.433 110.271 124.135C108.502 125.274 106.797 126.947 105.156 129.154C103.515 131.37 102.344 133.672 101.651 136.071C106.574 133.346 110.207 129.999 112.541 126.023Z" fill="#FFF0F0"/>
<path d="M120.882 129.999C122.969 126.015 124.77 122.924 126.283 120.717C127.797 118.51 128.713 117.338 129.032 117.211C129.095 116.956 129.374 116.924 129.884 117.115C129 118.573 128.45 119.912 128.227 121.139C128.004 122.374 128.179 123.394 128.745 124.215C129.438 125.227 130.274 125.625 131.254 125.402C132.234 125.179 133.071 124.852 133.764 124.406C134.202 124.151 134.632 123.888 135.046 123.601C135.453 123.314 135.819 123.019 136.138 122.701L136.425 122.135C136.488 122.135 136.536 122.119 136.568 122.087C136.6 122.055 136.648 122.039 136.711 122.039C136.711 121.976 136.775 121.88 136.903 121.752C136.966 121.689 137.094 121.721 137.285 121.848C137.914 121.593 138.48 121.657 138.99 122.039C139.245 122.541 139.149 123.115 138.703 123.744C137.126 126.207 135.588 128.748 134.106 131.37C132.625 133.991 131.533 136.286 130.84 138.238C130.33 140.007 130.569 141.099 131.549 141.505C132.529 141.919 133.931 141.489 135.763 140.222C137.596 138.963 139.412 137.41 141.212 135.577C143.013 133.744 144.542 131.912 145.809 130.079C146 129.824 146.191 129.76 146.375 129.888C146.566 130.015 146.502 130.27 146.183 130.645C144.789 132.477 143.196 134.31 141.396 136.143C139.595 137.975 137.811 139.489 136.042 140.692C134.21 142.023 132.68 142.828 131.446 143.107C130.211 143.386 129.263 143.298 128.602 142.82C127.94 142.342 127.606 141.529 127.606 140.358C127.606 139.186 127.956 137.784 128.649 136.143L135.469 123.824C134.959 124.207 134.393 124.613 133.764 125.059C133.134 125.505 132.465 125.944 131.772 126.39C130.195 127.338 128.976 127.888 128.124 128.047C127.271 128.207 126.69 127.999 126.371 127.434C125.989 127.115 125.821 126.549 125.853 125.729C125.885 124.908 125.997 124.215 126.188 123.641C126.315 123.139 126.236 122.932 125.949 123.027C125.662 123.123 125.367 123.394 125.049 123.832C124.602 124.525 124.244 125.115 123.957 125.585C123.67 126.055 123.399 126.517 123.153 126.956C122.898 127.402 122.643 127.856 122.396 128.326C122.141 128.796 121.83 129.386 121.448 130.079L120.882 129.999Z" fill="#FFF0F0"/>
<path d="M186.151 130.565C184.382 132.717 182.359 134.86 180.088 137.011C177.818 139.163 174.974 140.804 171.564 141.935C170.808 142.19 170.003 142.35 169.151 142.406C168.298 142.469 167.525 142.406 166.832 142.214C165.502 141.832 164.761 141.171 164.61 140.222C164.45 139.274 164.785 138.135 165.606 136.812C166.554 135.362 167.502 133.768 168.45 132.023C169.398 130.286 170.186 128.597 170.816 126.956C171.254 125.88 171.333 125.139 171.055 124.733C170.768 124.326 170.122 124.462 169.111 125.163C167.47 126.239 165.813 127.705 164.14 129.569C162.467 131.434 160.905 133.473 159.448 135.681C158.946 136.756 158.531 137.673 158.213 138.43C157.894 139.187 157.552 139.824 157.169 140.326C156.476 141.402 155.751 141.744 154.986 141.37C154.668 141.242 154.524 140.987 154.556 140.613C154.588 140.23 154.763 139.856 155.074 139.473C156.779 137.202 158.213 134.892 159.384 132.557C160.555 130.223 161.232 128.135 161.423 126.302C161.551 125.545 161.375 125.035 160.905 124.788C160.435 124.533 159.75 124.757 158.866 125.45C158.045 126.143 157.209 126.964 156.357 127.912C155.504 128.86 154.7 129.872 153.943 130.948C152.676 132.78 151.497 134.724 150.39 136.772C149.282 138.828 148.191 140.677 147.123 142.318C146.869 142.756 146.558 143.059 146.175 143.218C145.793 143.378 145.451 143.266 145.132 142.884C144.686 142.382 144.503 141.856 144.566 141.322C144.63 140.788 144.949 140.039 145.514 139.099C146.144 138.087 146.773 136.955 147.41 135.689C148.04 134.43 148.605 133.163 149.115 131.896C149.617 130.637 150.095 129.418 150.533 128.246C150.971 127.075 151.322 126.055 151.577 125.163C151.704 124.661 151.879 123.992 152.094 123.171C152.318 122.35 152.549 121.88 152.804 121.753C153.122 121.625 153.449 121.529 153.799 121.466C154.142 121.402 154.413 121.306 154.604 121.179C155.106 120.988 155.456 121.067 155.648 121.418C155.839 121.769 155.775 122.382 155.456 123.266C155.329 123.649 155.138 124.167 154.891 124.828C154.636 125.49 154.357 126.223 154.038 127.011C153.72 127.8 153.409 128.605 153.09 129.426C152.772 130.246 152.493 130.972 152.238 131.609C153.752 129.466 155.193 127.665 156.548 126.207C157.902 124.757 158.993 123.84 159.814 123.458C160.698 123.019 161.439 122.972 162.037 123.314C162.634 123.665 162.873 124.47 162.746 125.729C162.554 127.752 161.957 129.864 160.945 132.079C162.395 130.246 163.917 128.541 165.494 126.964C167.071 125.386 168.744 124.055 170.513 122.98C171.525 122.35 172.504 122 173.452 121.936C174.528 121.808 175.125 122.063 175.253 122.693C175.38 123.322 175.189 124.111 174.687 125.059C173.174 127.904 171.875 130.414 170.8 132.597C169.724 134.78 168.999 136.653 168.617 138.238C168.298 139.505 168.426 140.374 168.999 140.844C169.573 141.314 170.449 141.362 171.652 140.987C174.87 139.975 177.587 138.445 179.802 136.39C182.008 134.334 183.936 132.238 185.577 130.087C185.832 129.768 186.047 129.697 186.239 129.848C186.438 130.015 186.406 130.254 186.151 130.565Z" fill="#FFF0F0"/>
<path d="M213.34 131.139C212.456 132.278 211.492 133.457 210.448 134.692C209.405 135.927 208.282 137.091 207.087 138.198C205.884 139.306 204.673 140.334 203.438 141.274C202.203 142.222 200.992 143.011 199.789 143.64C195.997 145.6 193.584 145.959 192.54 144.732C191.496 143.497 191.608 140.86 192.875 136.82C193.193 135.808 193.568 134.748 194.014 133.649C194.452 132.541 194.994 131.362 195.623 130.095C193.982 132.31 192.293 134.405 190.556 136.397C188.82 138.389 187.035 139.919 185.203 140.995C183.371 142.134 182.088 142.278 181.363 141.425C180.638 140.573 180.782 139.202 181.793 137.306C183.052 135.035 184.637 132.931 186.533 131.003C188.429 129.075 190.293 127.481 192.126 126.214C193.074 125.521 194.085 124.924 195.161 124.414C196.236 123.912 197.304 123.657 198.379 123.657C198.817 122.709 199.295 121.808 199.797 120.956C200.299 120.103 200.809 119.33 201.311 118.637C201.502 118.382 201.717 118.254 201.972 118.254C202.291 118.254 202.442 118.446 202.442 118.82C202.442 119.075 202.474 119.282 202.538 119.434C202.602 119.593 202.665 119.736 202.729 119.864L202.92 120.246C203.111 120.629 203.111 120.94 202.92 121.195C200.897 124.414 199.319 127.338 198.18 129.959C197.041 132.581 196.189 135.314 195.623 138.158C195.177 140.31 195.384 141.76 196.236 142.517C197.089 143.274 198.491 143.21 200.451 142.326C201.462 141.887 202.538 141.234 203.669 140.381C204.8 139.529 205.908 138.581 206.983 137.537C208.059 136.493 209.102 135.394 210.106 134.222C211.118 133.051 212.002 131.904 212.759 130.764C212.95 130.445 213.141 130.374 213.324 130.525C213.531 130.676 213.531 130.884 213.34 131.139ZM197.901 124.597C197.017 124.597 196.053 124.868 195.01 125.402C193.966 125.936 192.938 126.653 191.935 127.537C191.425 127.92 190.859 128.453 190.23 129.147C189.6 129.84 188.979 130.613 188.382 131.465C187.784 132.318 187.226 133.186 186.724 134.071C186.215 134.955 185.84 135.808 185.585 136.629C185.139 137.895 185.139 138.668 185.585 138.947C186.023 139.234 186.724 138.931 187.672 138.047C189.441 136.405 191.225 134.461 193.026 132.222C194.818 129.983 196.443 127.441 197.901 124.597Z" fill="#FFF0F0"/>
<path d="M189.781 38.1987C189.351 36.4139 188.634 34.7486 187.694 33.2267C186.061 31.6411 183.448 30.2387 179.855 29.5694C178.843 29.3782 178.023 29.2826 177.361 29.2427C177.17 27.9439 176.843 26.693 176.413 25.4978C176.286 25.4739 176.166 25.434 176.039 25.4181C173.474 18.5497 167.053 13.49 159.317 12.7809C159.206 12.7649 159.094 12.749 158.983 12.7331C158.975 12.7251 158.959 12.7171 158.951 12.7092C158.72 12.7012 158.489 12.6853 158.25 12.6853C157.31 12.6853 156.394 12.7729 155.494 12.9004C151.367 8.73314 145.878 5.92841 139.752 5.17942C138.804 5.0838 137.856 5.01209 136.892 4.98819C136.518 4.98022 136.143 4.98022 135.769 4.98819C134.152 4.99616 132.558 5.10771 130.981 5.32284C130.654 5.36268 130.328 5.40252 130.001 5.4583C125.365 2.48624 119.876 0.725321 113.989 0.61377C108.101 0.725321 102.613 2.48624 97.9761 5.4583C97.6495 5.40252 97.3229 5.37065 96.9962 5.32284C96.9086 5.37862 96.813 5.42643 96.7254 5.4822C96.0642 5.34675 95.387 5.2591 94.7099 5.17145C93.8893 5.07583 93.0529 5.01209 92.2084 4.98819C91.9694 4.98022 91.7304 4.96428 91.4914 4.96428C90.3841 4.96428 89.3007 5.05193 88.2252 5.17942C82.0991 5.92841 76.6102 8.72517 72.4836 12.9004C71.5834 12.7729 70.6673 12.6853 69.7272 12.6853C69.4882 12.6853 69.2572 12.7012 69.0262 12.7092C68.4606 12.7331 67.895 12.7809 67.3373 12.8446C60.0082 13.753 53.9777 18.7569 51.5638 25.4978C51.1337 26.7009 50.807 27.9439 50.6158 29.2427C49.9546 29.2826 49.1421 29.3782 48.1224 29.5694C44.5215 30.2387 41.9165 31.6411 40.2834 33.2267C39.7337 33.7606 39.2956 34.3103 38.969 34.8522C38.3954 35.8163 38.1484 36.9477 38.1962 38.1908C38.1962 38.1987 38.1962 38.2067 38.1962 38.2147C38.4751 45.6647 49.3094 57.5768 65.1067 67.0269C70.3885 70.1901 75.6542 72.7319 80.5695 74.5964C83.055 75.5367 85.4449 76.3016 87.7074 76.8912C87.8667 76.9311 88.0181 76.9709 88.1774 77.0107C88.4483 77.0824 88.7191 77.1382 88.99 77.202C89.2449 77.2577 89.4999 77.3215 89.7548 77.3773H89.7627C90.177 77.4649 90.5912 77.5526 90.9975 77.6322C91.1569 77.6641 91.3082 77.688 91.4675 77.7119C91.6348 77.7438 91.8021 77.7757 91.9694 77.7996C92.5032 77.8872 93.029 77.9669 93.5388 78.0306C93.722 78.0545 93.9053 78.0705 94.0885 78.0864C94.4948 77.5765 94.909 77.0585 95.3233 76.5486C95.379 76.5645 95.4348 76.5725 95.4985 76.5884C95.4428 76.5725 95.395 76.5566 95.3392 76.5327C98.223 73.0188 101.426 69.5049 104.931 66.0309C106.134 64.8357 107.368 63.6484 108.643 62.4692C108.818 62.3098 108.994 62.1505 109.169 61.9911C110.722 60.5569 112.347 59.1465 113.997 57.7442C114.698 57.1466 115.391 56.549 116.108 55.9593C116.665 55.4972 117.231 55.0669 117.796 54.6207C118.418 54.1267 119.039 53.6247 119.661 53.1466C120.481 52.5092 121.302 51.9036 122.122 51.2901C123.261 50.4455 124.401 49.6168 125.548 48.8121C125.659 48.7324 125.771 48.6527 125.882 48.573C127.946 47.1308 130.009 45.7842 132.064 44.4934C133.371 43.6807 134.669 42.8839 135.96 42.1349C137.139 41.4497 138.31 40.7883 139.481 40.1588C139.927 39.9198 140.373 39.6728 140.819 39.4338C141.568 39.0433 142.309 38.6609 143.058 38.2943C143.209 38.2146 143.369 38.135 143.52 38.0553C145.026 37.3063 146.523 36.6211 147.997 35.9677C148.284 35.8402 148.571 35.7047 148.85 35.5852C152.068 34.1988 155.191 33.0673 158.202 32.151C158.688 32.0076 159.174 31.8482 159.652 31.7128C159.74 31.6889 159.827 31.665 159.923 31.6411C161.03 31.3303 162.122 31.0674 163.197 30.8283C163.579 30.7407 163.962 30.653 164.336 30.5734C167.093 30.0156 169.698 29.7049 172.143 29.6252C172.486 29.6172 172.836 29.5933 173.179 29.5933C173.354 29.5933 173.529 29.5933 173.705 29.6013C174.597 29.6092 175.465 29.6491 176.294 29.7288C176.581 29.7527 176.851 29.7925 177.13 29.8323C179.194 30.0953 181.074 30.5893 182.739 31.3223C184.427 32.0634 185.893 33.0355 187.12 34.2705C187.415 34.5653 187.71 34.8681 187.973 35.1948C188.721 36.1111 189.311 37.123 189.797 38.2067C189.805 38.2147 189.805 38.2226 189.813 38.2386C189.789 38.2306 189.789 38.2147 189.781 38.1987ZM70.3884 66.1504C51.9383 55.0988 41.2792 41.5134 45.3023 34.7964C45.5572 34.3741 46.0591 33.9199 46.6406 33.4896C47.74 32.6849 49.0305 32.2148 50.3768 32.0156C50.3768 32.0235 50.3768 32.0235 50.3768 32.0315C50.3768 34.5095 50.8469 36.884 51.6993 39.0593C52.3924 41.3461 53.3563 43.7046 54.5831 46.087C58.3512 52.0869 62.6929 57.6964 67.5285 62.8277C68.7952 64.1664 70.0857 65.4811 71.4161 66.7559C71.0736 66.5567 70.731 66.3576 70.3884 66.1504ZM72.4039 67.3296C72.6429 67.4731 72.7226 67.5129 72.4039 67.3296V67.3296ZM74.8735 64.493C69.5201 59.8955 65.1545 54.8199 61.952 49.7363C58.1521 43.7205 55.9932 37.7127 55.7701 32.5096C55.7462 31.904 55.7382 31.3064 55.7621 30.7168C55.7781 30.3503 55.8099 29.9917 55.8498 29.6331C56.1525 26.7647 57.1483 24.2309 58.8929 22.191C60.6854 20.1034 63.1311 18.7489 65.999 18.0238C66.9071 17.7927 67.8472 17.6174 68.835 17.5218C68.7633 17.6413 68.6916 17.7688 68.6199 17.8883C67.1381 20.3425 66.0308 23.0436 65.3935 25.928C65.043 27.5137 64.8359 29.1471 64.7801 30.8283C64.7721 30.9479 64.7642 31.0674 64.7642 31.1949C64.7642 31.3622 64.7403 31.5295 64.7403 31.7048C64.7403 32.0156 64.7801 32.3184 64.7881 32.6291C64.812 33.3781 64.8598 34.1191 64.9394 34.8522C64.9554 35.0434 64.9633 35.2346 64.9793 35.4179C65.4652 40.9716 66.7239 46.3101 68.6518 51.314C70.731 56.7402 73.5909 61.776 77.0961 66.2938C76.3553 65.7121 75.6064 65.1305 74.8735 64.493ZM73.3201 51.2981C73.2882 51.2104 73.2563 51.1307 73.2245 51.0431C71.448 46.4057 70.3247 41.8401 69.9105 37.5214C69.8069 36.4378 69.7591 35.3781 69.7432 34.3263C69.7352 33.5932 69.7511 32.8681 69.783 32.151C69.8627 30.3981 70.0778 28.7009 70.4283 27.0834C71.201 23.5058 72.627 20.2947 74.754 17.6254C74.8098 17.5537 74.8815 17.482 74.9373 17.4103C75.5507 16.6613 76.2119 15.9442 76.9448 15.2828C77.2475 15.0039 77.5662 14.749 77.8848 14.502C81.4777 11.6175 85.9548 10.0797 90.9418 9.78491C90.9099 9.82475 90.886 9.86459 90.8621 9.90443C90.2726 10.7092 89.699 11.5379 89.1413 12.3745C88.3606 13.3625 87.6596 14.4063 87.0064 15.482C86.2256 16.7728 85.5326 18.1194 84.9431 19.5138C84.8873 19.6413 84.8315 19.7608 84.7758 19.8883C84.728 20.0078 84.6802 20.1353 84.6324 20.2548C84.4571 20.701 84.2978 21.1552 84.1385 21.6094C82.8638 24.5496 81.8362 27.6172 81.0395 30.7805C80.6093 32.4857 80.2588 34.2147 79.98 35.9677C79.8286 36.9079 79.6932 37.8481 79.5896 38.8043C79.4542 40.0154 79.3507 41.2425 79.2949 42.4775C79.2471 43.4655 79.2232 44.4536 79.2232 45.4496C79.2232 46.581 79.263 47.6965 79.3188 48.8121C79.4542 51.2184 79.741 53.5849 80.1473 55.9036C81.0634 61.1465 82.6567 66.1584 84.8475 70.8435C79.741 64.5409 75.8614 57.8557 73.3201 51.2981ZM90.9099 45.6567C90.5434 46.9794 90.2088 48.326 89.9141 49.6885C89.8105 50.1586 89.7149 50.6367 89.6193 51.1068C89.1573 53.4494 88.7908 55.8478 88.5518 58.286C88.3606 60.1585 88.2332 62.0548 88.1854 63.9751C88.1376 65.9193 88.1615 67.8476 88.2571 69.7519C87.5481 67.6484 86.9187 65.489 86.385 63.258C85.9389 61.3935 85.5804 59.5449 85.2856 57.7043C84.6324 53.6088 84.3376 49.577 84.3854 45.6886C84.3934 45.3221 84.4013 44.9635 84.4173 44.597C84.4412 43.8321 84.473 43.0831 84.5208 42.3341C84.5368 42.0871 84.5527 41.8321 84.5686 41.5851C84.6563 40.4696 84.7917 39.3859 84.9351 38.3023C85.1741 36.4776 85.4768 34.7008 85.8672 32.9797C86.4407 30.4777 87.1577 28.0794 88.034 25.8244C88.4881 24.6611 88.982 23.5297 89.5158 22.446C89.6592 22.1592 89.8105 21.8883 89.9539 21.6094C90.639 20.2867 91.3879 19.0278 92.1925 17.8485C94.2239 14.8605 96.5979 12.3267 99.3065 10.3586C99.41 10.2869 99.5136 10.2231 99.6172 10.1514C100.868 9.27496 102.174 8.4941 103.545 7.86463C104.931 7.22719 106.381 6.70927 107.886 6.35071C109.902 5.87263 111.949 5.6814 113.989 5.73718C116.864 5.81686 119.74 6.39055 122.56 7.43436C119.573 8.55784 116.705 10.0479 113.989 11.8566C113.072 12.4622 112.18 13.1076 111.296 13.7928C111.168 13.8884 111.041 13.992 110.914 14.0956C110.77 14.2071 110.627 14.3346 110.483 14.4541C107.257 17.0676 104.285 20.1592 101.633 23.6492C100.78 24.7727 99.9677 25.936 99.187 27.1392C98.9878 27.4419 98.7887 27.7368 98.5975 28.0395C96.805 30.9001 95.2356 33.9837 93.8734 37.2346C93.2042 38.8282 92.5908 40.4696 92.0252 42.1429C91.6349 43.2982 91.2445 44.4615 90.9099 45.6567ZM91.7304 70.2858C91.7384 69.7918 91.7304 69.3057 91.7464 68.8117C91.842 65.25 92.1527 61.776 92.6466 58.3896C92.8218 57.1784 93.021 55.9753 93.2441 54.796C93.3715 54.1108 93.5149 53.4335 93.6583 52.7642C93.977 51.2901 94.3195 49.8399 94.7099 48.4216C95.0763 47.083 95.4906 45.7922 95.9208 44.5014C96.4784 42.8122 97.0839 41.1628 97.7371 39.5692C99.0197 36.4458 100.478 33.4976 102.103 30.7646C102.302 30.4379 102.501 30.1272 102.7 29.8005C103.457 28.5814 104.254 27.4021 105.074 26.2707C107.703 22.6691 110.643 19.5537 113.821 17.0278C113.877 16.988 113.933 16.9481 113.981 16.9003C114.315 16.6374 114.642 16.3744 114.984 16.1274C115.526 15.729 116.076 15.3386 116.641 14.9721C116.92 14.7888 117.207 14.6135 117.486 14.4382C120.872 12.3426 124.464 10.8765 128.209 10.1594C128.256 10.1514 128.304 10.1435 128.352 10.1355C130.296 9.77694 132.279 9.60165 134.295 9.65742C134.63 9.66539 134.956 9.69726 135.283 9.72117C135.896 9.76101 136.502 9.81678 137.107 9.89646C140.803 10.3666 144.349 11.5458 147.678 13.3625C145.488 13.8645 143.241 14.5816 140.963 15.474C140.644 15.6015 140.318 15.7211 139.999 15.8565C138.987 16.2788 137.959 16.741 136.94 17.2429C136.557 17.4262 136.167 17.6413 135.785 17.8405C132.646 19.4421 129.483 21.3783 126.344 23.6412C126.289 23.6811 126.241 23.7129 126.185 23.7528C125.086 24.5496 123.986 25.4021 122.895 26.2786C121.302 27.5535 119.716 28.9081 118.155 30.3423C116.745 31.6411 115.359 33.0195 113.989 34.4458C113.853 34.5892 113.71 34.7247 113.574 34.8681C112.754 35.7366 111.949 36.645 111.145 37.5453C110.834 37.8959 110.515 38.2147 110.212 38.5732C109.025 39.9517 107.854 41.3779 106.707 42.86C106.237 43.4655 105.791 44.0711 105.345 44.6767C104.333 46.0472 103.361 47.4256 102.437 48.8121C101.569 50.1188 100.725 51.4256 99.9358 52.7403C99.1631 54.0231 98.4382 55.306 97.7451 56.5888C97.5539 56.9474 97.3467 57.3059 97.1635 57.6645C97.1317 57.7282 97.0998 57.792 97.0679 57.8557C94.8692 62.0469 93.0927 66.2141 91.7304 70.2858ZM162.576 25.936C162.217 25.9997 161.867 26.0555 161.5 26.1272C160.982 26.2308 160.449 26.3583 159.915 26.4778C159.142 26.6531 158.345 26.8762 157.549 27.0834C154.155 27.9997 150.602 29.2268 146.93 30.7805C146.826 30.8204 146.73 30.8602 146.627 30.9C145.83 31.2427 145.026 31.5933 144.213 31.9598C143.52 32.2785 142.811 32.6211 142.11 32.9638C140.716 33.641 139.306 34.3422 137.888 35.0992C137.792 35.147 137.705 35.1948 137.609 35.2506C136.446 35.8721 135.275 36.5414 134.104 37.2187C132.821 37.9676 131.531 38.7485 130.232 39.5533C127.699 41.1389 125.165 42.844 122.632 44.6687C122.146 45.0193 121.668 45.346 121.182 45.6966C120.529 46.1747 119.876 46.6846 119.23 47.1786C118.617 47.6487 118.004 48.0949 117.39 48.581C116.602 49.2025 115.821 49.824 115.04 50.4614C114.682 50.7562 114.347 51.067 113.989 51.3618C112.698 52.4375 111.415 53.5132 110.189 54.6128C108.675 55.9593 107.201 57.3298 105.783 58.7003C105.09 59.3696 104.405 60.0469 103.728 60.7242C103.29 61.1624 102.86 61.6007 102.429 62.0389C100.454 64.0787 98.5816 66.1344 96.8289 68.1902C97.9522 65.4253 99.2507 62.6445 100.725 59.8637C100.772 59.776 100.812 59.6963 100.86 59.6087C101.537 58.3338 102.254 57.0669 103.003 55.8C103.035 55.784 103.059 55.7681 103.091 55.7601C103.075 55.7442 103.067 55.7362 103.051 55.7203C103.935 54.2303 104.883 52.7482 105.855 51.2742C106.301 50.6049 106.731 49.9355 107.193 49.2742C107.695 48.5571 108.221 47.8718 108.739 47.1707C110.101 45.3301 111.487 43.5452 112.913 41.8481C113.264 41.4337 113.622 41.0433 113.981 40.6369C114.459 40.0871 114.937 39.5373 115.423 39.0035C115.885 38.4935 116.363 38.0155 116.833 37.5214C117.143 37.1948 117.454 36.8601 117.765 36.5414C120.21 34.0554 122.728 31.8164 125.269 29.7766C126.44 28.8363 127.611 27.9439 128.79 27.1073C129.021 26.94 129.252 26.7567 129.491 26.5973C132.335 24.6213 135.195 22.948 138.031 21.5855C138.684 21.2668 139.338 20.956 139.983 20.6771C140.652 20.3903 141.321 20.1114 141.982 19.8644C141.99 19.8724 141.99 19.8883 141.998 19.8963C142.014 19.8803 142.03 19.8564 142.046 19.8405C142.381 19.713 142.707 19.6174 143.034 19.5058C146.491 18.2788 149.853 17.5617 153.04 17.4023C153.207 17.3943 153.382 17.3704 153.55 17.3625C154.864 17.3226 156.147 17.3864 157.397 17.5378C158.067 17.6174 158.712 17.7529 159.357 17.8883C161.875 18.4302 164.217 19.3943 166.304 20.8524C168.001 22.0397 169.451 23.4978 170.677 25.1711C168.152 25.1551 165.444 25.4181 162.576 25.936Z" fill="url(#paint0_linear)"/>
<path d="M38.1724 37.6328C38.6583 36.5332 39.2558 35.5133 40.0046 34.589C40.2755 34.2623 40.5623 33.9595 40.857 33.6647C42.0839 32.4376 43.5577 31.4576 45.2386 30.7166C46.9115 29.9835 48.7836 29.4895 50.8469 29.2265C51.1257 29.1867 51.4046 29.1548 51.6834 29.123C52.5199 29.0433 53.3882 29.0034 54.2725 28.9955C54.4477 28.9955 54.623 28.9875 54.7983 28.9875C57.5307 28.9955 60.4863 29.3301 63.633 29.9676C65.0669 30.2624 66.5328 30.6209 68.0384 31.0353C68.126 31.0592 68.2137 31.0831 68.3093 31.107C71.7587 32.0791 75.3755 33.3699 79.1117 34.9794C80.8643 35.7364 82.6488 36.5571 84.4492 37.4495C85.3414 37.8957 86.2416 38.3499 87.1498 38.828C87.5959 39.059 88.0421 39.306 88.4882 39.553C92.9653 41.9753 97.5221 44.788 102.087 47.9752C104.166 49.4254 106.237 50.9473 108.309 52.5488C109.496 53.4651 110.683 54.3974 111.862 55.3615C114.275 57.3376 116.586 59.3535 118.8 61.3933C118.976 61.5526 119.151 61.712 119.326 61.8713C120.601 63.0506 121.836 64.2378 123.038 65.433C126.544 68.9071 129.754 72.4289 132.63 75.9348C132.574 75.9508 132.526 75.9667 132.471 75.9906C132.526 75.9826 132.582 75.9667 132.646 75.9508C133.068 76.4607 133.474 76.9786 133.881 77.4886C134.064 77.4647 134.247 77.4567 134.43 77.4328C134.94 77.3691 135.466 77.2894 136 77.2017C136.167 77.1778 136.334 77.146 136.502 77.1141C136.661 77.0822 136.812 77.0583 136.972 77.0344C137.378 76.9547 137.792 76.8751 138.206 76.7794H138.214C138.469 76.7237 138.724 76.6679 138.979 76.6041C139.25 76.5404 139.521 76.4766 139.792 76.4129C139.951 76.3731 140.103 76.3332 140.262 76.2934C142.524 75.7117 144.922 74.9388 147.4 73.9986C152.315 72.1341 157.581 69.5923 162.863 66.429C181.313 55.3774 193.015 40.9713 188.992 34.2543C187.686 32.0711 184.643 29.856 179.839 28.9716C178.827 28.7803 178.007 28.6847 177.345 28.6449C176.103 20.0634 169.26 13.3145 160.624 12.2468C159.843 12.1512 159.047 12.0874 158.234 12.0874C157.294 12.0874 156.378 12.1751 155.478 12.3026C150.634 7.40225 143.91 4.36645 136.478 4.36645C135.386 4.36645 134.319 4.4541 133.259 4.58159C132.582 4.66127 131.905 4.75688 131.244 4.89234C126.44 1.80076 120.72 0 114.586 0C108.468 0 102.764 1.7928 97.9682 4.86843C95.7137 4.50988 93.4114 4.34255 91.0773 4.40629C83.0232 4.62143 75.5029 7.41022 68.9944 12.1432C68.8829 12.1591 68.7713 12.1751 68.6598 12.191C60.9244 12.9002 54.5035 17.9598 51.9383 24.8282C49.5086 25.2266 47.2461 26.127 45.2784 27.4417C41.7573 29.7604 39.1841 33.3938 38.1724 37.6328ZM101.792 23.139C98.2151 20.5414 94.6064 18.3662 91.0374 16.6292C90.0098 16.1352 88.9901 15.665 87.9783 15.2427C85.3653 14.1591 82.7922 13.3225 80.2987 12.7488C84.1704 10.6373 88.3289 9.37831 92.6944 9.1074C93.0211 9.0835 93.3477 9.05162 93.6823 9.04365C95.7456 8.98788 97.777 9.16318 99.7766 9.54564C103.831 10.3185 107.719 11.9679 111.344 14.3503C111.901 14.7169 112.451 15.1073 113.001 15.5057C113.391 15.7925 113.781 16.0953 114.164 16.4061C118.601 19.9359 122.576 24.5892 125.882 30.1429C128.981 35.33 131.491 41.298 133.275 47.7999C133.666 49.2182 134.008 50.6763 134.327 52.1425C134.47 52.8197 134.614 53.497 134.741 54.1743C134.964 55.3615 135.163 56.5567 135.339 57.7678C135.833 61.1463 136.143 64.6283 136.239 68.19C136.255 68.684 136.247 69.17 136.255 69.664C134.892 65.5844 133.116 61.4172 130.933 57.242C130.901 57.1782 130.869 57.1145 130.838 57.0507C130.646 56.6922 130.447 56.3336 130.256 55.975C129.563 54.6922 128.83 53.4094 128.065 52.1265C126.058 48.7959 123.795 45.4812 121.294 42.2383C120.155 40.7642 118.984 39.3379 117.789 37.9515C116.689 36.6686 115.566 35.4416 114.427 34.2464C112.921 32.6607 111.392 31.1548 109.838 29.7206C107.185 27.2983 104.501 25.0991 101.792 23.139ZM124.433 7.2429C125.922 7.92814 127.34 8.75681 128.679 9.7289C132.678 12.6372 135.992 16.7806 138.469 21.8163C139.003 22.9 139.489 24.0314 139.951 25.1947C141.791 29.9118 142.978 35.2503 143.417 40.9554C143.432 41.2024 143.448 41.4574 143.464 41.7044C143.512 42.4534 143.544 43.2103 143.568 43.9673C143.576 44.3338 143.592 44.6924 143.6 45.0589C143.648 48.9473 143.361 52.9791 142.7 57.0746C142.405 58.9152 142.046 60.7638 141.6 62.6283C141.066 64.8593 140.437 67.0187 139.728 69.1222C139.816 67.2179 139.848 65.2976 139.8 63.3454C139.752 61.4251 139.625 59.5288 139.433 57.6563C139.186 55.2101 138.828 52.8197 138.366 50.4771C138.27 49.9991 138.175 49.529 138.071 49.0588C137.776 47.6963 137.442 46.3497 137.075 45.027C135.283 38.5889 132.67 32.6448 129.396 27.4098C125.954 21.904 121.78 17.179 117.08 13.4659C116.952 13.3623 116.825 13.2667 116.697 13.1631C113.2 10.454 109.424 8.30263 105.441 6.80465C110.26 5.01983 115.247 4.56565 120.115 5.72101C121.597 6.0955 123.046 6.60546 124.433 7.2429ZM150.092 13.8882C150.411 14.1432 150.73 14.3981 151.032 14.6691C151.829 15.3941 152.562 16.175 153.223 17.0116C156.712 21.3861 158.33 27.1867 158.234 33.7125C158.218 34.7643 158.17 35.824 158.067 36.9077C157.652 41.2263 156.529 45.792 154.753 50.4293C154.721 50.517 154.689 50.5967 154.657 50.6843C152.108 57.242 148.236 63.9191 143.13 70.2298C145.313 65.5446 146.906 60.5407 147.83 55.2898C148.236 52.9632 148.523 50.6046 148.658 48.1983C148.722 47.0828 148.754 45.9673 148.754 44.8358C148.754 43.8398 148.73 42.8438 148.682 41.8638C148.619 40.6287 148.515 39.4096 148.388 38.1905C147.726 32.1428 146.165 26.366 143.839 20.9956C143.687 20.5414 143.52 20.0873 143.345 19.6411C143.297 19.5215 143.249 19.3941 143.201 19.2745C142.102 16.5495 140.628 14.0236 138.836 11.7528C138.254 10.8763 137.657 10.0157 137.035 9.17114C142.022 9.46596 146.492 11.0038 150.092 13.8882ZM172.215 30.103C172.239 30.6847 172.231 31.2823 172.207 31.8958C171.984 37.0989 169.825 43.1068 166.025 49.1226C162.823 54.1982 158.457 59.2818 153.104 63.8793C152.371 64.5088 151.622 65.0984 150.881 65.688C154.378 61.1702 157.238 56.1344 159.325 50.7082C161.245 45.7043 162.504 40.3658 162.998 34.8121C163.014 34.6209 163.03 34.4296 163.038 34.2464C163.125 33.5133 163.165 32.7723 163.189 32.0233C163.197 31.7126 163.237 31.4098 163.237 31.099C163.237 30.9237 163.213 30.7644 163.213 30.5891C163.117 25.5692 161.636 20.892 159.142 16.916C160.13 17.0116 161.07 17.1869 161.978 17.418C164.846 18.1431 167.292 19.4976 169.084 21.5853C171.052 23.8721 172.064 26.7883 172.215 30.103ZM156.553 66.1342C154.362 67.4171 155.669 66.6521 156.553 66.1342C157.884 64.8593 159.182 63.5446 160.441 62.206C165.276 57.0746 169.618 51.4731 173.386 45.4653C174.613 43.0829 175.577 40.7243 176.27 38.4375C177.122 36.2623 177.592 33.8878 177.592 31.4098C177.592 31.4018 177.592 31.4018 177.592 31.3938C178.939 31.593 180.229 32.0631 181.329 32.8679C181.91 33.2982 182.412 33.7524 182.667 34.1747C186.69 40.8996 176.039 54.485 157.581 65.5287C157.238 65.7358 156.896 65.935 156.553 66.1342ZM68.0623 25.8641C67.5286 25.7445 67.0028 25.6171 66.477 25.5135C63.2028 24.8521 60.1278 24.5334 57.3077 24.5653C58.5345 22.892 59.9844 21.4339 61.6812 20.2466C64.3022 18.414 67.3055 17.3383 70.5797 16.932C71.8225 16.7806 73.105 16.7168 74.4275 16.7567C78.0602 16.8762 81.9398 17.7208 85.931 19.2427C85.9469 19.2586 85.9628 19.2825 85.9787 19.2984C85.9867 19.2905 85.9867 19.2745 85.9947 19.2666C86.6559 19.5215 87.3251 19.7925 87.9942 20.0793C91.4596 21.5773 94.9888 23.5772 98.486 26.0075C102.469 28.7724 106.421 32.103 110.205 35.9515C110.993 36.7483 111.766 37.577 112.539 38.4216C113.383 39.3459 114.22 40.2861 115.048 41.2662C117.024 43.6008 118.944 46.0709 120.768 48.6844C122.258 50.8118 123.636 52.9632 124.911 55.1225C124.895 55.1384 124.887 55.1464 124.871 55.1623C124.903 55.1782 124.927 55.1942 124.958 55.2022C125.707 56.4691 126.424 57.7439 127.101 59.0108C127.149 59.0985 127.189 59.1782 127.237 59.2658C128.711 62.0466 130.009 64.8275 131.132 67.5924C129.372 65.5366 127.508 63.4809 125.532 61.4411C125.11 61.0028 124.672 60.5646 124.233 60.1264C123.556 59.4491 122.879 58.7718 122.178 58.1025C119.278 55.3057 116.195 52.5488 112.921 49.8636C112.14 49.2262 111.352 48.5967 110.571 47.9832C109.312 46.9951 108.046 46.031 106.779 45.0988C101.29 41.051 95.7615 37.5531 90.3523 34.6448C90.2567 34.597 90.1691 34.5492 90.0735 34.4934C87.9465 33.354 85.8274 32.3022 83.7482 31.354C82.9356 30.9875 82.139 30.6289 81.3343 30.2943C76.7059 28.3102 72.2367 26.8282 68.0623 25.8641Z" fill="url(#paint1_linear)"/>
<defs>
<linearGradient id="paint0_linear" x1="98.504" y1="94.8404" x2="117.585" y2="24.3607" gradientUnits="userSpaceOnUse">
<stop offset="0.0295" stop-color="#DADEED"/>
<stop offset="0.9996" stop-color="#868C92"/>
</linearGradient>
<linearGradient id="paint1_linear" x1="158.197" y1="79.502" x2="104.144" y2="26.5191" gradientUnits="userSpaceOnUse">
<stop stop-color="#EF8396"/>
<stop offset="0.5305" stop-color="#F29F99"/>
<stop offset="1" stop-color="#F5B99C"/>
</linearGradient>
</defs>
</svg>
