<svg width="208" height="146" viewBox="0 0 208 146" fill="none" xmlns="http://www.w3.org/2000/svg">
<path d="M97.2869 88.0835L97.1006 88.9969C96.9144 89.304 96.7591 89.4498 96.6427 89.4498C96.5185 89.4498 96.4254 89.3577 96.3633 89.1735C96.177 88.805 95.8122 88.6285 95.2533 88.6285H94.5159C92.7307 88.6285 91.1163 89.0276 89.6726 89.8182C88.2289 90.6089 86.9171 91.7065 85.7528 93.1036C84.1539 95.0533 82.8421 96.9108 81.8331 98.6686C80.8163 100.434 79.8771 102.292 79.0155 104.234C78.2161 105.999 77.4321 107.903 76.6637 109.937C75.8953 111.979 75.2045 114.074 74.5835 116.239C73.9704 118.404 73.427 120.545 72.9691 122.671C72.5111 124.805 72.1851 126.87 71.9988 128.881C71.9367 129.549 71.8902 130.178 71.8591 130.754C71.8281 131.33 71.8126 131.929 71.8126 132.535C71.8126 134.907 72.1385 137.01 72.7828 138.837C73.427 140.664 74.4904 141.938 75.9651 142.667C77.0751 143.212 78.1462 143.489 79.1941 143.489C80.1177 143.489 81.0414 143.32 81.9651 142.99C82.8887 142.652 83.7813 142.214 84.6429 141.669C86.4281 140.51 87.8408 139.052 88.8886 137.286C88.9507 137.041 89.1059 136.918 89.3465 136.918C89.4707 136.918 89.5329 137.01 89.5329 137.194L89.3465 137.739C88.8498 138.469 88.2056 139.29 87.4061 140.203C86.6066 141.117 85.8382 141.815 85.1008 142.306C83.7425 143.281 82.3143 144.041 80.8085 144.586C79.3027 145.131 77.7504 145.408 76.1514 145.408C74.6767 145.408 73.2873 145.162 71.9988 144.678C70.1515 143.949 68.8631 142.729 68.1179 141.025C67.3805 139.321 67.008 137.371 67.008 135.183C67.008 134.638 67.0235 134.086 67.0546 133.541C67.0856 132.996 67.1322 132.412 67.1943 131.806C67.5047 129.25 68.0869 126.555 68.9484 123.731C69.81 120.898 70.8268 118.027 71.9911 115.103C72.6043 113.644 73.2485 112.217 73.9315 110.812C74.6068 109.415 75.2821 108.01 75.9651 106.613C77.4399 103.873 78.5498 101.916 79.2872 100.726C80.0246 99.536 80.3971 98.8836 80.3971 98.7607C80.3971 98.6993 80.3661 98.6686 80.304 98.6686C80.1798 98.6686 80.0556 98.73 79.9315 98.8529C78.8836 99.8891 77.7348 101.079 76.4697 102.415C75.2045 103.75 74.0557 105.032 73.0079 106.245C71.5331 107.887 69.7479 109.975 67.6522 112.501C65.5565 115.026 63.422 117.659 61.2409 120.399C59.0521 123.14 56.9952 125.849 55.0547 128.52C53.1143 131.199 51.5619 133.479 50.3976 135.367C50.0251 135.974 49.6603 136.603 49.2877 137.24C48.9151 137.877 48.6745 138.476 48.5503 139.021C48.4882 139.628 48.1467 140.088 47.5335 140.387C47.0368 140.695 46.4391 140.994 45.7328 141.301C45.0264 141.608 44.3356 141.969 43.6526 142.399C43.5284 142.521 43.3732 142.583 43.1946 142.583C42.9463 142.583 42.8221 142.46 42.8221 142.214V141.938L43.4663 140.019C43.5905 139.773 43.6681 139.459 43.6992 139.06C43.7302 138.66 43.7768 138.284 43.8389 137.916C44.0252 135.298 44.1183 132.589 44.1183 129.795C44.1183 128.398 44.1183 127.039 44.1183 125.734C44.1183 124.429 44.1493 123.193 44.2114 122.034C44.2114 121.305 44.227 120.56 44.258 119.801C44.2891 119.041 44.3356 118.265 44.3977 117.475L43.9398 118.112C42.7057 119.877 41.0446 121.827 38.9567 123.953C36.861 126.087 34.742 128.029 32.5842 129.795C30.6748 131.376 28.5713 132.88 26.2583 134.316C23.953 135.744 21.4149 136.918 18.6439 137.831C16.4861 138.561 14.3051 138.929 12.093 138.929C10.3698 138.929 8.75535 138.699 7.24956 138.246C5.74376 137.793 4.43201 137.048 3.32982 136.012C2.46826 135.222 1.76194 134.231 1.20309 133.042C0.644235 131.852 0.279423 130.685 0.0931383 129.526C0.0310436 129.342 0 129.073 0 128.705V127.883C0 126.97 0.0931426 126.026 0.279427 125.051C0.465711 124.076 0.768425 123.163 1.20309 122.311C1.69208 121.213 2.31302 120.046 3.0504 118.795C3.78777 117.552 4.49411 116.408 5.17715 115.372C5.23924 115.187 5.39448 115.095 5.63509 115.095C5.75928 115.095 5.82138 115.187 5.82138 115.372C5.82138 115.556 5.75928 115.709 5.63509 115.824C4.95981 116.554 4.32334 117.621 3.7412 119.018C3.15906 120.422 2.86412 121.727 2.86412 122.94V123.485C2.86412 124.943 3.06592 126.317 3.46177 127.592C3.85763 128.874 4.4941 129.933 5.35567 130.785C6.83042 132.366 8.49145 133.51 10.3388 134.208C12.1861 134.907 14.0877 135.26 16.0593 135.26C19.3813 135.26 22.7965 134.408 26.3049 132.704C27.9038 131.913 29.4562 130.969 30.9697 129.871C32.4755 128.774 33.8183 127.714 34.9826 126.678C36.6437 125.158 38.2271 123.608 39.7329 122.027C41.2387 120.445 42.5504 118.833 43.6526 117.191L44.39 116.093C44.5142 113.537 44.6849 111.042 44.8945 108.609C45.1118 106.176 45.399 104.019 45.7716 102.13C46.509 98.5381 47.9527 95.0456 50.1105 91.6298C50.6615 90.7777 51.298 89.8643 52.0043 88.8895C52.7107 87.9146 53.3083 87.0933 53.8051 86.4255C54.1156 86.1184 54.3872 85.9726 54.6356 85.9726C54.9461 85.9726 55.2488 86.1261 55.5593 86.4255C56.2966 87.2775 56.6692 88.2217 56.6692 89.2579C56.6692 89.7415 56.6382 90.0792 56.5761 90.2635C56.2035 92.6967 55.6369 95.0533 54.8685 97.3407C54.1 99.6205 53.3471 101.616 52.6098 103.32C51.9345 104.725 51.2437 106.153 50.5296 107.611C49.8233 109.07 49.0083 110.536 48.0846 111.994C48.0846 112.485 48.0691 112.938 48.038 113.36C48.007 113.79 47.9915 114.243 47.9915 114.727V116.83C47.9915 117.436 48.007 118.05 48.038 118.657C48.0691 119.263 48.0846 119.908 48.0846 120.576V126.141C48.0846 127.538 48.0691 128.927 48.038 130.294C48.007 131.66 48.0536 132.988 48.1777 134.262C48.1777 134.807 48.333 135.083 48.6357 135.083C48.9462 135.083 49.2178 134.868 49.4662 134.446C50.8168 132.558 52.4933 130.309 54.4959 127.691C56.4984 125.074 58.5709 122.426 60.7286 119.747C62.8787 117.068 64.9899 114.481 67.0546 111.986C69.1192 109.492 70.9122 107.389 72.4568 105.684C73.8694 104.103 75.3985 102.461 77.0285 100.756C78.6585 99.0524 80.304 97.3177 81.9651 95.5522C83.7503 93.6025 85.3803 91.8831 86.855 90.3939C88.3298 88.9048 89.8976 87.4233 91.5587 85.9649C92.5444 85.1743 93.5302 84.7751 94.5159 84.7751C95.3775 84.7751 96.0528 85.1129 96.5495 85.7807C97.0385 86.4715 97.2869 87.2315 97.2869 88.0835ZM54.5425 92.7351C54.5425 91.6989 54.3872 90.9696 54.0845 90.5475C53.7119 90.0639 53.3161 89.8182 52.8814 89.8182C52.4468 89.8182 52.113 90.0332 51.8646 90.4554C51.0031 91.791 50.3588 93.3185 49.9242 95.0226C49.4895 96.7266 49.1247 98.6149 48.8142 100.68C48.69 101.716 48.5503 102.867 48.3951 104.149C48.2398 105.431 48.1312 106.552 48.0691 107.527C48.007 108.502 48.0225 109.169 48.1157 109.538C48.2088 109.906 48.4416 109.722 48.8065 108.993C49.179 108.264 49.6214 107.381 50.1415 106.345C50.6615 105.308 51.1893 104.234 51.7094 103.105C52.2294 101.977 52.6951 100.856 53.091 99.7279C53.4868 98.5996 53.7818 97.617 53.9681 96.7573C54.0923 96.0895 54.2165 95.4064 54.3407 94.7002C54.4804 94.0017 54.5425 93.3492 54.5425 92.7351Z" fill="#3C2F51"/>
<path d="M120.634 127.883C119.587 129.587 118.36 131.061 116.94 132.312C115.519 133.563 114.029 134.622 112.461 135.505C110.893 136.388 109.333 137.102 107.796 137.647C106.26 138.192 104.839 138.591 103.551 138.836C100.477 139.504 98.226 139.274 96.8134 138.153C95.393 137.025 94.8729 135.398 95.2455 133.271C95.3697 132.296 95.781 131.13 96.4951 129.756C97.2015 128.389 98.1096 127.031 99.2195 125.695C100.329 124.359 101.556 123.093 102.914 121.903C104.265 120.713 105.623 119.762 106.974 119.025C108.448 118.295 109.698 118.004 110.715 118.157C111.732 118.311 112.236 118.84 112.236 119.754C112.236 120.422 111.957 121.159 111.406 121.942C110.055 123.953 108.223 125.787 105.91 127.461C103.605 129.134 101.276 130.669 98.9401 132.074C98.4511 134.085 98.9091 135.543 100.322 136.457C101.245 137.125 102.503 137.447 104.11 137.416C105.708 137.386 107.447 137.002 109.325 136.273C111.204 135.543 113.113 134.43 115.046 132.941C116.986 131.452 118.725 129.579 120.262 127.33C120.51 127.023 120.658 126.977 120.72 127.192C120.79 127.415 120.759 127.637 120.634 127.883ZM109.651 121.404C110.327 120.307 110.404 119.562 109.884 119.171C109.364 118.779 108.549 118.91 107.439 119.585C105.716 120.683 104.055 122.295 102.456 124.421C100.857 126.555 99.7163 128.773 99.041 131.084C103.838 128.458 107.377 125.235 109.651 121.404Z" fill="#3C2F51"/>
<path d="M117.778 125.235C119.812 121.397 121.566 118.419 123.041 116.293C124.516 114.166 125.408 113.038 125.719 112.915C125.781 112.669 126.052 112.639 126.549 112.823C125.688 114.228 125.152 115.517 124.935 116.699C124.717 117.889 124.888 118.872 125.439 119.662C126.115 120.637 126.93 121.021 127.884 120.806C128.839 120.591 129.654 120.276 130.329 119.847C130.756 119.601 131.175 119.348 131.579 119.071C131.975 118.795 132.332 118.511 132.642 118.204L132.922 117.659C132.984 117.659 133.03 117.644 133.061 117.613C133.092 117.582 133.139 117.567 133.201 117.567C133.201 117.505 133.263 117.413 133.387 117.29C133.449 117.229 133.574 117.26 133.76 117.383C134.373 117.137 134.924 117.198 135.421 117.567C135.669 118.05 135.576 118.603 135.142 119.209C133.605 121.581 132.107 124.03 130.663 126.555C129.219 129.081 128.156 131.291 127.481 133.172C126.984 134.876 127.217 135.928 128.171 136.319C129.126 136.718 130.492 136.304 132.277 135.083C134.063 133.871 135.832 132.374 137.587 130.608C139.341 128.843 140.831 127.077 142.065 125.312C142.251 125.066 142.438 125.005 142.616 125.128C142.802 125.25 142.74 125.496 142.43 125.857C141.072 127.622 139.519 129.388 137.765 131.153C136.011 132.919 134.272 134.377 132.549 135.536C130.764 136.818 129.274 137.593 128.071 137.862C126.867 138.131 125.944 138.046 125.3 137.586C124.655 137.125 124.329 136.342 124.329 135.214C124.329 134.085 124.671 132.734 125.346 131.153L131.99 119.286C131.493 119.655 130.942 120.046 130.329 120.476C129.716 120.906 129.064 121.328 128.389 121.758C126.852 122.671 125.664 123.201 124.834 123.354C124.003 123.508 123.437 123.308 123.126 122.763C122.754 122.456 122.591 121.911 122.622 121.121C122.653 120.33 122.761 119.662 122.948 119.11C123.072 118.626 122.994 118.426 122.715 118.519C122.435 118.611 122.148 118.872 121.838 119.294C121.403 119.962 121.054 120.53 120.774 120.983C120.495 121.435 120.231 121.881 119.99 122.303C119.742 122.733 119.494 123.17 119.253 123.623C119.005 124.076 118.702 124.644 118.329 125.312L117.778 125.235Z" fill="#3C2F51"/>
<path d="M181.371 125.78C179.648 127.853 177.676 129.917 175.464 131.99C173.252 134.062 170.481 135.644 167.159 136.734C166.422 136.979 165.638 137.133 164.807 137.187C163.977 137.248 163.224 137.187 162.548 137.002C161.252 136.634 160.53 135.997 160.383 135.083C160.228 134.17 160.554 133.072 161.353 131.798C162.277 130.401 163.2 128.866 164.124 127.185C165.048 125.511 165.816 123.884 166.429 122.303C166.856 121.267 166.934 120.553 166.662 120.161C166.383 119.77 165.754 119.9 164.768 120.576C163.169 121.612 161.555 123.024 159.925 124.821C158.295 126.617 156.774 128.582 155.353 130.708C154.864 131.744 154.461 132.627 154.15 133.356C153.84 134.085 153.506 134.7 153.133 135.183C152.458 136.219 151.752 136.549 151.007 136.189C150.696 136.066 150.556 135.82 150.587 135.459C150.618 135.091 150.789 134.73 151.092 134.362C152.753 132.174 154.15 129.948 155.291 127.699C156.432 125.45 157.092 123.439 157.278 121.673C157.402 120.944 157.232 120.453 156.774 120.215C156.316 119.969 155.648 120.184 154.787 120.852C153.987 121.52 153.172 122.311 152.342 123.224C151.511 124.137 150.727 125.112 149.99 126.149C148.756 127.914 147.607 129.787 146.528 131.76C145.449 133.74 144.386 135.521 143.346 137.102C143.097 137.524 142.794 137.816 142.422 137.97C142.049 138.123 141.716 138.016 141.405 137.647C140.97 137.164 140.792 136.657 140.854 136.143C140.916 135.628 141.227 134.907 141.778 134.001C142.391 133.026 143.004 131.936 143.625 130.716C144.238 129.503 144.789 128.282 145.286 127.062C145.775 125.849 146.241 124.675 146.668 123.546C147.095 122.418 147.436 121.435 147.684 120.576C147.809 120.092 147.979 119.447 148.189 118.657C148.406 117.866 148.631 117.413 148.88 117.29C149.19 117.168 149.508 117.076 149.85 117.014C150.184 116.953 150.448 116.861 150.634 116.738C151.123 116.554 151.464 116.63 151.651 116.968C151.837 117.306 151.775 117.897 151.464 118.749C151.34 119.117 151.154 119.616 150.913 120.253C150.665 120.89 150.393 121.597 150.083 122.357C149.772 123.117 149.47 123.892 149.159 124.682C148.849 125.473 148.577 126.172 148.329 126.786C149.803 124.721 151.208 122.986 152.528 121.581C153.847 120.184 154.911 119.302 155.71 118.933C156.572 118.511 157.294 118.465 157.876 118.795C158.458 119.133 158.691 119.908 158.567 121.121C158.38 123.07 157.798 125.105 156.812 127.239C158.225 125.473 159.708 123.83 161.244 122.311C162.781 120.791 164.411 119.509 166.134 118.473C167.12 117.866 168.075 117.528 168.999 117.467C170.046 117.344 170.628 117.59 170.753 118.196C170.877 118.803 170.691 119.563 170.202 120.476C168.727 123.216 167.462 125.634 166.414 127.737C165.366 129.841 164.66 131.645 164.287 133.172C163.977 134.393 164.101 135.229 164.66 135.682C165.218 136.135 166.072 136.181 167.244 135.82C170.38 134.845 173.027 133.372 175.185 131.391C177.335 129.411 179.213 127.392 180.812 125.32C181.06 125.012 181.27 124.943 181.456 125.089C181.65 125.25 181.619 125.481 181.371 125.78Z" fill="#3C2F51"/>
<path d="M207.862 126.332C207.001 127.43 206.061 128.566 205.045 129.756C204.028 130.946 202.933 132.066 201.769 133.133C200.597 134.2 199.417 135.19 198.214 136.096C197.011 137.01 195.831 137.77 194.659 138.376C190.965 140.264 188.613 140.61 187.596 139.428C186.579 138.238 186.688 135.697 187.922 131.805C188.233 130.83 188.597 129.81 189.032 128.75C189.459 127.683 189.987 126.547 190.6 125.327C189.001 127.461 187.355 129.479 185.663 131.398C183.971 133.317 182.233 134.791 180.447 135.828C178.662 136.925 177.413 137.063 176.706 136.242C176 135.421 176.14 134.1 177.125 132.274C178.352 130.086 179.896 128.059 181.744 126.202C183.591 124.344 185.407 122.809 187.192 121.589C188.116 120.921 189.102 120.345 190.15 119.854C191.198 119.37 192.238 119.125 193.285 119.125C193.712 118.211 194.178 117.344 194.667 116.522C195.156 115.701 195.653 114.957 196.142 114.289C196.328 114.043 196.538 113.92 196.786 113.92C197.097 113.92 197.244 114.105 197.244 114.465C197.244 114.711 197.275 114.91 197.337 115.056C197.399 115.21 197.461 115.348 197.523 115.471L197.71 115.839C197.896 116.208 197.896 116.507 197.71 116.753C195.738 119.854 194.201 122.671 193.091 125.196C191.981 127.722 191.151 130.355 190.6 133.095C190.165 135.167 190.367 136.564 191.198 137.294C192.028 138.023 193.394 137.961 195.304 137.109C196.289 136.687 197.337 136.058 198.439 135.236C199.542 134.415 200.62 133.502 201.668 132.496C202.716 131.491 203.733 130.431 204.711 129.303C205.697 128.175 206.558 127.069 207.296 125.972C207.482 125.665 207.668 125.595 207.847 125.741C208.048 125.887 208.048 126.087 207.862 126.332ZM192.82 120.03C191.958 120.03 191.019 120.291 190.002 120.806C188.985 121.32 187.984 122.011 187.006 122.863C186.509 123.231 185.958 123.746 185.345 124.413C184.732 125.081 184.127 125.826 183.544 126.647C182.962 127.468 182.419 128.305 181.93 129.157C181.433 130.009 181.068 130.83 180.82 131.621C180.385 132.842 180.385 133.586 180.82 133.855C181.247 134.131 181.93 133.839 182.854 132.987C184.577 131.406 186.315 129.533 188.07 127.376C189.816 125.219 191.399 122.771 192.82 120.03Z" fill="#3C2F51"/>
<path d="M184.907 36.7984C184.488 35.079 183.79 33.4747 182.874 32.0086C181.283 30.4811 178.737 29.1301 175.236 28.4853C174.25 28.3011 173.451 28.209 172.807 28.1706C172.62 26.9194 172.302 25.7143 171.883 24.5629C171.759 24.5399 171.642 24.5015 171.518 24.4862C169.019 17.8695 162.763 12.9952 155.226 12.3121C155.118 12.2967 155.009 12.2814 154.9 12.266C154.892 12.2583 154.877 12.2507 154.869 12.243C154.644 12.2353 154.419 12.22 154.186 12.22C153.27 12.22 152.378 12.3044 151.5 12.4272C147.48 8.41269 142.132 5.71075 136.163 4.98921C135.239 4.89709 134.316 4.82801 133.377 4.80498C133.012 4.79731 132.647 4.79731 132.282 4.80498C130.707 4.81266 129.154 4.92012 127.617 5.12737C127.299 5.16575 126.981 5.20413 126.663 5.25786C122.145 2.39473 116.797 0.698345 111.061 0.590881C105.325 0.698345 99.9774 2.39473 95.46 5.25786C95.1417 5.20413 94.8235 5.17343 94.5053 5.12737C94.4199 5.18111 94.3268 5.22716 94.2414 5.2809C93.5972 5.15041 92.9374 5.06596 92.2776 4.98153C91.4782 4.88942 90.6632 4.82801 89.8404 4.80498C89.6076 4.79731 89.3747 4.78196 89.1418 4.78196C88.063 4.78196 87.0073 4.86639 85.9595 4.98921C79.9906 5.71075 74.6427 8.40501 70.6221 12.4272C69.745 12.3044 68.8524 12.22 67.9365 12.22C67.7036 12.22 67.4785 12.2353 67.2535 12.243C66.7024 12.266 66.1513 12.3121 65.6079 12.3735C58.467 13.2485 52.5913 18.0691 50.2395 24.5629C49.8204 25.722 49.5021 26.9194 49.3158 28.1706C48.6716 28.209 47.8799 28.3011 46.8864 28.4853C43.378 29.1301 40.8399 30.4811 39.2487 32.0086C38.7132 32.5229 38.2862 33.0525 37.968 33.5745C37.4092 34.5033 37.1685 35.5933 37.2151 36.7907C37.2151 36.7984 37.2151 36.8061 37.2151 36.8138C37.4868 43.9908 48.0429 55.4664 63.4346 64.57C68.5807 67.6174 73.7113 70.066 78.5004 71.8622C80.922 72.768 83.2506 73.5049 85.455 74.0729C85.6102 74.1113 85.7577 74.1497 85.9129 74.188C86.1768 74.2571 86.4407 74.3109 86.7046 74.3723C86.953 74.426 87.2014 74.4874 87.4498 74.5411H87.4575C87.8611 74.6256 88.2648 74.71 88.6606 74.7868C88.8159 74.8175 88.9633 74.8405 89.1186 74.8635C89.2816 74.8942 89.4446 74.9249 89.6076 74.948C90.1276 75.0324 90.6399 75.1092 91.1366 75.1706C91.3152 75.1936 91.4937 75.2089 91.6722 75.2243C92.0681 74.733 92.4717 74.2341 92.8753 73.7428C92.9296 73.7582 92.984 73.7659 93.0461 73.7812C92.9917 73.7659 92.9451 73.7505 92.8908 73.7275C95.7006 70.3424 98.8209 66.9573 102.236 63.6105C103.408 62.4592 104.611 61.3154 105.853 60.1794C106.024 60.0259 106.195 59.8724 106.365 59.7188C107.879 58.3372 109.462 56.9785 111.069 55.6276C111.752 55.0519 112.427 54.4762 113.126 53.9081C113.669 53.4629 114.22 53.0484 114.771 52.6186C115.377 52.1427 115.982 51.6591 116.588 51.1985C117.387 50.5844 118.187 50.0011 118.986 49.41C120.096 48.5964 121.206 47.7981 122.324 47.0228C122.432 46.946 122.541 46.8693 122.65 46.7925C124.66 45.4032 126.67 44.1059 128.673 42.8624C129.946 42.0795 131.211 41.3119 132.468 40.5903C133.617 39.9302 134.758 39.2931 135.899 38.6867C136.334 38.4564 136.769 38.2185 137.203 37.9882C137.933 37.6121 138.655 37.2436 139.384 36.8905C139.532 36.8138 139.687 36.737 139.834 36.6602C141.301 35.9387 142.761 35.2786 144.197 34.6491C144.476 34.5263 144.755 34.3958 145.027 34.2807C148.163 32.9451 151.206 31.8551 154.14 30.9723C154.613 30.8342 155.086 30.6807 155.552 30.5502C155.638 30.5271 155.723 30.5041 155.816 30.4811C156.895 30.1817 157.958 29.9284 159.006 29.6981C159.379 29.6137 159.751 29.5293 160.116 29.4525C162.802 28.9152 165.34 28.6158 167.723 28.5391C168.057 28.5314 168.398 28.5084 168.732 28.5084C168.903 28.5084 169.073 28.5084 169.244 28.516C170.113 28.5237 170.959 28.5621 171.767 28.6389C172.046 28.6619 172.31 28.7003 172.582 28.7386C174.592 28.992 176.424 29.4679 178.046 30.174C179.692 30.8879 181.12 31.8244 182.315 33.0142C182.602 33.2982 182.889 33.5899 183.146 33.9046C183.875 34.7873 184.45 35.7622 184.923 36.8061C184.931 36.8138 184.931 36.8214 184.939 36.8368C184.915 36.8291 184.915 36.8138 184.907 36.7984ZM68.5807 63.7257C50.6043 53.0791 40.219 39.9916 44.1387 33.5208C44.3871 33.1139 44.8761 32.6764 45.4427 32.2619C46.5138 31.4866 47.7712 31.0338 49.083 30.8419C49.083 30.8495 49.083 30.8495 49.083 30.8572C49.083 33.2444 49.5409 35.5319 50.3714 37.6274C51.0467 39.8304 51.9859 42.1025 53.1812 44.3976C56.8526 50.1776 61.0828 55.5815 65.7942 60.5248C67.0284 61.8144 68.2858 63.0809 69.582 64.3091C69.2482 64.1172 68.9145 63.9253 68.5807 63.7257ZM70.5445 64.8617C70.7773 64.9999 70.8549 65.0383 70.5445 64.8617V64.8617ZM72.9506 62.1291C67.7347 57.7001 63.4812 52.8105 60.3609 47.9132C56.6585 42.1179 54.5551 36.3302 54.3377 31.3178C54.3145 30.7344 54.3067 30.1587 54.33 29.5907C54.3455 29.2376 54.3765 28.8922 54.4154 28.5467C54.7103 25.7834 55.6805 23.3424 57.3804 21.3774C59.1268 19.3663 61.5097 18.0614 64.3039 17.3629C65.1888 17.1403 66.1047 16.9714 67.0672 16.8793C66.9973 16.9944 66.9274 17.1172 66.8576 17.2324C65.4139 19.5966 64.335 22.1987 63.7141 24.9774C63.3725 26.5049 63.1707 28.0785 63.1164 29.6981C63.1086 29.8133 63.1009 29.9284 63.1009 30.0512C63.1009 30.2124 63.0776 30.3736 63.0776 30.5425C63.0776 30.8419 63.1164 31.1335 63.1241 31.4329C63.1474 32.1545 63.194 32.8683 63.2716 33.5745C63.2871 33.7587 63.2949 33.943 63.3104 34.1195C63.7839 39.4696 65.0103 44.6125 66.8886 49.433C68.9145 54.6604 71.701 59.5116 75.1162 63.8639C74.3943 63.3035 73.6647 62.7432 72.9506 62.1291ZM71.4371 49.4177C71.406 49.3333 71.375 49.2565 71.3439 49.1721C69.613 44.7047 68.5186 40.3063 68.115 36.146C68.0141 35.102 67.9675 34.0811 67.952 33.0679C67.9443 32.3617 67.9598 31.6632 67.9908 30.9723C68.0684 29.2836 68.278 27.6487 68.6195 26.0904C69.3724 22.6439 70.7618 19.5505 72.8342 16.9791C72.8885 16.91 72.9584 16.8409 73.0127 16.7718C73.6104 16.0503 74.2546 15.3594 74.9687 14.7223C75.2637 14.4537 75.5741 14.208 75.8846 13.9701C79.3852 11.1914 83.7474 9.70992 88.6063 9.42591C88.5752 9.46429 88.5519 9.50267 88.5287 9.54105C87.9543 10.3163 87.3954 11.1146 86.8521 11.9206C86.0914 12.8724 85.4084 13.878 84.7719 14.9142C84.0113 16.1577 83.336 17.455 82.7616 18.7983C82.7073 18.9211 82.653 19.0362 82.5986 19.159C82.552 19.2742 82.5055 19.397 82.4589 19.5121C82.2881 19.942 82.1329 20.3795 81.9777 20.817C80.7358 23.6495 79.7345 26.6047 78.9583 29.6521C78.5392 31.2947 78.1976 32.9604 77.926 34.6491C77.7785 35.5549 77.6466 36.4607 77.5457 37.3818C77.4137 38.5485 77.3128 39.7306 77.2585 40.9204C77.2119 41.8722 77.1886 42.824 77.1886 43.7835C77.1886 44.8735 77.2274 45.9482 77.2817 47.0228C77.4137 49.3409 77.6931 51.6207 78.089 53.8544C78.9816 58.9052 80.534 63.7334 82.6685 68.2468C77.6931 62.1752 73.9131 55.735 71.4371 49.4177ZM88.5752 43.9831C88.2182 45.2573 87.8922 46.5546 87.605 47.8671C87.5041 48.32 87.411 48.7806 87.3178 49.2335C86.8676 51.4902 86.5106 53.8007 86.2777 56.1495C86.0914 57.9534 85.9673 59.7803 85.9207 61.6302C85.8741 63.5031 85.8974 65.3607 85.9905 67.1952C85.2997 65.1688 84.6865 63.0886 84.1665 60.9393C83.7318 59.1431 83.3825 57.3623 83.0954 55.5892C82.4589 51.6437 82.1717 47.7597 82.2183 44.0138C82.226 43.6607 82.2338 43.3153 82.2493 42.9622C82.2726 42.2253 82.3037 41.5038 82.3502 40.7822C82.3658 40.5443 82.3813 40.2986 82.3968 40.0607C82.4822 38.9861 82.6141 37.9421 82.7538 36.8982C82.9867 35.1404 83.2817 33.4287 83.662 31.7706C84.2208 29.3604 84.9194 27.0499 85.7732 24.8776C86.2156 23.7569 86.6969 22.667 87.2169 21.623C87.3566 21.3467 87.5041 21.0857 87.6438 20.817C88.3113 19.5428 89.0409 18.33 89.8249 17.194C91.8042 14.3155 94.1172 11.8745 96.7562 9.97858C96.8571 9.9095 96.958 9.84809 97.0589 9.77901C98.2775 8.93465 99.5505 8.18241 100.886 7.57601C102.236 6.96193 103.649 6.46299 105.116 6.11757C107.079 5.65702 109.074 5.4728 111.061 5.52653C113.863 5.60329 116.665 6.15595 119.413 7.16151C116.502 8.24382 113.708 9.67922 111.061 11.4217C110.169 12.005 109.299 12.6268 108.438 13.2869C108.314 13.379 108.189 13.4788 108.065 13.5786C107.926 13.6861 107.786 13.8089 107.646 13.924C104.503 16.4417 101.607 19.42 99.0227 22.7821C98.1922 23.8644 97.4005 24.9851 96.6398 26.1442C96.4457 26.4359 96.2517 26.7199 96.0654 27.0116C94.319 29.7672 92.7899 32.7378 91.4626 35.8696C90.8106 37.4048 90.213 38.9861 89.6619 40.598C89.2816 41.711 88.9012 42.8317 88.5752 43.9831ZM89.3747 67.7095C89.3825 67.2336 89.3747 66.7654 89.3902 66.2895C89.4834 62.8583 89.7861 59.5116 90.2673 56.2493C90.4381 55.0826 90.6321 53.9235 90.8495 52.7874C90.9737 52.1273 91.1134 51.4749 91.2531 50.8301C91.5635 49.41 91.8973 48.013 92.2776 46.6467C92.6347 45.3571 93.0383 44.1136 93.4574 42.8701C94.0008 41.2428 94.5907 39.6539 95.2271 38.1187C96.4768 35.1097 97.8972 32.2696 99.4806 29.6367C99.6747 29.322 99.8687 29.0227 100.063 28.7079C100.8 27.5335 101.576 26.3975 102.376 25.3075C104.937 21.838 107.801 18.8367 110.898 16.4034C110.953 16.365 111.007 16.3266 111.054 16.2806C111.38 16.0272 111.698 15.7739 112.032 15.536C112.559 15.1522 113.095 14.7761 113.646 14.423C113.918 14.2464 114.197 14.0776 114.469 13.9087C117.768 11.8899 121.268 10.4775 124.916 9.78668C124.963 9.77901 125.009 9.77133 125.056 9.76366C126.95 9.41824 128.882 9.24937 130.846 9.3031C131.172 9.31078 131.49 9.34148 131.809 9.36451C132.406 9.40289 132.996 9.45662 133.586 9.53338C137.188 9.98626 140.642 11.1223 143.886 12.8724C141.752 13.356 139.563 14.0468 137.343 14.9066C137.032 15.0294 136.714 15.1445 136.404 15.275C135.418 15.6818 134.417 16.127 133.423 16.6106C133.051 16.7872 132.67 16.9944 132.298 17.1863C129.24 18.7292 126.158 20.5944 123.1 22.7744C123.046 22.8128 122.999 22.8435 122.945 22.8819C121.874 23.6495 120.802 24.4708 119.739 25.3152C118.187 26.5433 116.642 27.8482 115.121 29.2299C113.747 30.4811 112.396 31.809 111.061 33.183C110.929 33.3212 110.79 33.4517 110.658 33.5899C109.858 34.4265 109.074 35.3016 108.29 36.169C107.988 36.5067 107.677 36.8138 107.382 37.1592C106.226 38.4871 105.085 39.8611 103.967 41.2888C103.509 41.8722 103.074 42.4556 102.64 43.039C101.654 44.3592 100.707 45.6872 99.8066 47.0228C98.9606 48.2816 98.1378 49.5405 97.3694 50.807C96.6165 52.0429 95.9102 53.2787 95.2349 54.5145C95.0486 54.86 94.8468 55.2054 94.6683 55.5508C94.6372 55.6122 94.6062 55.6736 94.5751 55.735C92.4329 59.7726 90.702 63.7871 89.3747 67.7095ZM158.401 24.9851C158.051 25.0465 157.71 25.1002 157.353 25.1693C156.848 25.2691 156.328 25.3919 155.808 25.5071C155.055 25.6759 154.279 25.8909 153.503 26.0904C150.197 26.9732 146.735 28.1553 143.157 29.6521C143.056 29.6905 142.962 29.7288 142.862 29.7672C142.085 30.0973 141.301 30.435 140.51 30.7881C139.834 31.0952 139.144 31.4252 138.461 31.7553C137.102 32.4078 135.728 33.0832 134.347 33.8125C134.254 33.8585 134.168 33.9046 134.075 33.9583C132.942 34.557 131.801 35.2018 130.66 35.8543C129.41 36.5758 128.153 37.328 126.888 38.1033C124.419 39.6308 121.951 41.2735 119.483 43.0313C119.009 43.369 118.544 43.6838 118.07 44.0215C117.434 44.4821 116.797 44.9733 116.169 45.4492C115.571 45.9021 114.973 46.332 114.376 46.8002C113.607 47.3989 112.847 47.9976 112.086 48.6117C111.737 48.8957 111.411 49.1951 111.061 49.4791C109.804 50.5154 108.554 51.5516 107.359 52.6109C105.884 53.9081 104.448 55.2284 103.067 56.5487C102.391 57.1934 101.724 57.8459 101.064 58.4984C100.637 58.9205 100.218 59.3427 99.7989 59.7649C97.8739 61.7299 96.0499 63.7103 94.3423 65.6907C95.4367 63.0272 96.7019 60.3483 98.1378 57.6694C98.1844 57.5849 98.2232 57.5082 98.2698 57.4237C98.9295 56.1956 99.6281 54.9751 100.358 53.7546C100.389 53.7393 100.412 53.7239 100.443 53.7162C100.428 53.7009 100.42 53.6932 100.404 53.6779C101.266 52.2425 102.19 50.8147 103.136 49.3947C103.571 48.7499 103.99 48.1051 104.44 47.468C104.929 46.7772 105.442 46.117 105.946 45.4415C107.274 43.6684 108.624 41.949 110.013 40.314C110.355 39.9149 110.704 39.5387 111.054 39.1473C111.519 38.6176 111.985 38.088 112.458 37.5737C112.909 37.0824 113.374 36.6219 113.832 36.146C114.135 35.8312 114.438 35.5088 114.74 35.2018C117.123 32.8069 119.576 30.65 122.052 28.6849C123.193 27.7792 124.334 26.9194 125.483 26.1135C125.708 25.9523 125.933 25.7757 126.166 25.6222C128.937 23.7186 131.723 22.1066 134.487 20.794C135.123 20.487 135.759 20.1876 136.388 19.919C137.04 19.6426 137.692 19.374 138.336 19.136C138.344 19.1437 138.344 19.159 138.352 19.1667C138.367 19.1514 138.383 19.1283 138.398 19.113C138.724 18.9902 139.043 18.8981 139.361 18.7906C142.73 17.6085 146.005 16.9177 149.11 16.7641C149.273 16.7565 149.444 16.7334 149.607 16.7258C150.887 16.6874 152.137 16.7488 153.356 16.8946C154.008 16.9714 154.636 17.1019 155.265 17.2324C157.718 17.7543 160 18.6831 162.033 20.0878C163.687 21.2315 165.099 22.6363 166.295 24.2482C163.834 24.2329 161.195 24.4862 158.401 24.9851Z" fill="url(#paint0_linear)"/>
<path d="M37.1921 36.2536C37.6656 35.1943 38.2478 34.2118 38.9774 33.3214C39.2413 33.0067 39.5207 32.715 39.8079 32.431C41.0032 31.2489 42.4392 30.3047 44.0769 29.5909C45.7069 28.8847 47.5309 28.4088 49.5412 28.1554C49.8129 28.1171 50.0846 28.0864 50.3562 28.0557C51.1712 27.9789 52.0173 27.9405 52.8788 27.9328C53.0496 27.9328 53.2204 27.9252 53.3911 27.9252C56.0534 27.9328 58.9331 28.2552 61.999 28.8693C63.3961 29.1533 64.8243 29.4987 66.2913 29.8979C66.3767 29.9209 66.4621 29.9439 66.5552 29.967C69.9161 30.9034 73.44 32.147 77.0803 33.6975C78.7879 34.4267 80.5265 35.2173 82.2807 36.077C83.15 36.5069 84.0271 36.9444 84.912 37.405C85.3466 37.6276 85.7813 37.8655 86.216 38.1035C90.5781 40.437 95.0179 43.1466 99.4654 46.217C101.491 47.614 103.509 49.0801 105.527 50.623C106.684 51.5057 107.84 52.4038 108.989 53.3326C111.341 55.2363 113.592 57.1783 115.75 59.1433C115.921 59.2968 116.091 59.4504 116.262 59.6039C117.504 60.7399 118.707 61.8836 119.879 63.035C123.294 66.3818 126.422 69.7745 129.224 73.152C129.17 73.1673 129.123 73.1827 129.069 73.2057C129.123 73.198 129.178 73.1827 129.24 73.1673C129.651 73.6586 130.047 74.1575 130.443 74.6488C130.621 74.6258 130.8 74.6181 130.979 74.5951C131.475 74.5336 131.988 74.4569 132.508 74.3724C132.671 74.3494 132.834 74.3187 132.997 74.288C133.152 74.2573 133.299 74.2343 133.455 74.2113C133.85 74.1345 134.254 74.0577 134.658 73.9656H134.665C134.914 73.9119 135.162 73.8582 135.411 73.7967C135.674 73.7353 135.938 73.6739 136.202 73.6125C136.357 73.5741 136.505 73.5358 136.66 73.4974C138.865 72.937 141.201 72.1925 143.615 71.2867C148.404 69.4905 153.534 67.0419 158.681 63.9945C176.657 53.348 188.059 39.4698 184.139 32.999C182.866 30.8958 179.901 28.7619 175.221 27.9098C174.235 27.7256 173.436 27.6335 172.792 27.5951C171.581 19.3281 164.913 12.8265 156.499 11.798C155.739 11.7059 154.963 11.6444 154.171 11.6444C153.255 11.6444 152.362 11.7289 151.485 11.8517C146.766 7.13098 140.215 4.20643 132.973 4.20643C131.91 4.20643 130.87 4.29087 129.838 4.41368C129.178 4.49044 128.518 4.58255 127.874 4.71304C123.193 1.73477 117.62 0 111.644 0C105.683 0 100.125 1.72709 95.4526 4.69002C93.256 4.3446 91.0128 4.1834 88.7386 4.24481C80.8913 4.45206 73.5641 7.13865 67.2227 11.6982C67.114 11.7135 67.0054 11.7289 66.8967 11.7442C59.36 12.4274 53.1039 17.3016 50.6046 23.9183C48.2373 24.3021 46.0329 25.1695 44.1157 26.436C40.685 28.6697 38.1779 32.17 37.1921 36.2536ZM99.1782 22.291C95.6932 19.7886 92.177 17.6931 88.6997 16.0197C87.6985 15.5438 86.7049 15.091 85.7192 14.6841C83.1733 13.6402 80.6662 12.8342 78.2368 12.2815C82.009 10.2474 86.0607 9.03461 90.3142 8.77363C90.6325 8.7506 90.9507 8.7199 91.2767 8.71222C93.287 8.65849 95.2663 8.82736 97.2145 9.19581C101.165 9.94038 104.953 11.5293 108.485 13.8244C109.028 14.1775 109.564 14.5536 110.099 14.9374C110.479 15.2138 110.86 15.5055 111.232 15.8048C115.556 19.2053 119.429 23.688 122.65 29.0382C125.669 34.0352 128.114 39.7845 129.853 46.0481C130.233 47.4145 130.567 48.8192 130.878 50.2315C131.017 50.884 131.157 51.5364 131.281 52.1889C131.499 53.3326 131.693 54.484 131.863 55.6508C132.345 58.9054 132.647 62.2598 132.74 65.6909C132.756 66.1668 132.748 66.6351 132.756 67.111C131.429 63.1809 129.698 59.1664 127.571 55.1441C127.54 55.0827 127.509 55.0213 127.478 54.9599C127.292 54.6145 127.098 54.2691 126.911 53.9237C126.236 52.6878 125.522 51.452 124.777 50.2162C122.821 47.0076 120.616 43.8144 118.179 40.6903C117.069 39.2702 115.928 37.8963 114.764 36.5606C113.693 35.3248 112.598 34.1427 111.489 32.9913C110.022 31.4638 108.531 30.013 107.018 28.6314C104.433 26.2979 101.817 24.1793 99.1782 22.291ZM121.237 6.97746C122.689 7.63759 124.07 8.43589 125.374 9.37236C129.271 12.1741 132.5 16.1656 134.914 21.0168C135.434 22.0607 135.907 23.1507 136.357 24.2714C138.15 28.8156 139.307 33.9585 139.734 39.4545C139.749 39.6924 139.765 39.9381 139.78 40.176C139.827 40.8976 139.858 41.6268 139.881 42.356C139.889 42.7091 139.905 43.0545 139.912 43.4076C139.959 47.1535 139.68 51.0375 139.035 54.983C138.748 56.7561 138.399 58.5369 137.964 60.3331C137.444 62.4824 136.831 64.5626 136.14 66.589C136.226 64.7545 136.257 62.9046 136.21 61.0239C136.163 59.174 136.039 57.3472 135.853 55.5433C135.612 53.1868 135.263 50.884 134.813 48.6273C134.72 48.1667 134.627 47.7138 134.526 47.2609C134.238 45.9483 133.912 44.6511 133.555 43.3769C131.809 37.1747 129.263 31.4484 126.073 26.4053C122.72 21.1012 118.653 16.5494 114.073 12.9724C113.949 12.8726 113.825 12.7805 113.701 12.6807C110.293 10.0709 106.614 7.99836 102.733 6.55528C107.429 4.83586 112.288 4.39833 117.03 5.51134C118.474 5.87212 119.887 6.36338 121.237 6.97746ZM146.238 13.3792C146.549 13.6248 146.859 13.8705 147.154 14.1315C147.93 14.83 148.644 15.5822 149.289 16.3882C152.688 20.6023 154.264 26.1904 154.171 32.477C154.155 33.4902 154.109 34.5111 154.008 35.5551C153.604 39.7155 152.51 44.1138 150.779 48.5812C150.748 48.6656 150.717 48.7424 150.686 48.8268C148.202 55.1441 144.43 61.5766 139.454 67.656C141.581 63.1425 143.134 58.322 144.034 53.2635C144.43 51.0222 144.709 48.7501 144.841 46.4319C144.903 45.3573 144.934 44.2827 144.934 43.1927C144.934 42.2332 144.911 41.2737 144.864 40.3295C144.802 39.1398 144.701 37.9653 144.577 36.7909C143.933 30.9649 142.412 25.3998 140.145 20.2262C139.998 19.7886 139.835 19.3511 139.664 18.9213C139.617 18.8061 139.571 18.6833 139.524 18.5682C138.453 15.943 137.017 13.5097 135.271 11.3221C134.704 10.4777 134.122 9.64869 133.517 8.83504C138.376 9.11905 142.73 10.6005 146.238 13.3792ZM167.793 28.9998C167.816 29.5601 167.808 30.1358 167.785 30.7269C167.568 35.7393 165.464 41.527 161.762 47.3223C158.642 52.2119 154.388 57.1092 149.172 61.5382C148.458 62.1446 147.729 62.7127 147.007 63.2807C150.414 58.9284 153.201 54.0772 155.234 48.8499C157.105 44.0293 158.331 38.8865 158.812 33.5363C158.828 33.3521 158.844 33.1679 158.851 32.9913C158.937 32.2851 158.975 31.5713 158.999 30.8497C159.007 30.5504 159.045 30.2587 159.045 29.9593C159.045 29.7904 159.022 29.6369 159.022 29.468C158.929 24.6322 157.485 20.1264 155.056 16.2961C156.018 16.3882 156.934 16.5571 157.819 16.7797C160.613 17.4782 162.996 18.7831 164.743 20.7942C166.66 22.9972 167.645 25.8066 167.793 28.9998ZM152.533 63.7105C150.399 64.9464 151.672 64.2095 152.533 63.7105C153.829 62.4824 155.095 61.2158 156.321 59.9263C161.032 54.983 165.263 49.5867 168.934 43.7991C170.129 41.504 171.068 39.2319 171.744 37.0289C172.574 34.9333 173.032 32.6459 173.032 30.2587C173.032 30.251 173.032 30.251 173.032 30.2433C174.344 30.4352 175.601 30.8881 176.672 31.6634C177.239 32.0779 177.728 32.5154 177.976 32.9222C181.896 39.4007 171.519 52.4883 153.534 63.1272C153.201 63.3267 152.867 63.5186 152.533 63.7105ZM66.3146 24.9162C65.7945 24.8011 65.2823 24.6782 64.77 24.5785C61.5799 23.9413 58.5838 23.6343 55.8361 23.665C57.0314 22.0531 58.4441 20.6484 60.0973 19.5046C62.651 17.7392 65.5772 16.7029 68.7673 16.3114C69.9782 16.1656 71.2278 16.1042 72.5163 16.1426C76.0557 16.2577 79.8357 17.0714 83.7244 18.5375C83.7399 18.5528 83.7554 18.5758 83.771 18.5912C83.7787 18.5835 83.7787 18.5682 83.7865 18.5605C84.4307 18.8061 85.0827 19.0671 85.7347 19.3434C89.1111 20.7865 92.5496 22.7132 95.9571 25.0544C99.838 27.7179 103.688 30.9265 107.375 34.634C108.143 35.4016 108.896 36.1999 109.649 37.0135C110.472 37.9039 111.287 38.8097 112.094 39.7538C114.019 42.0029 115.889 44.3824 117.667 46.9002C119.118 48.9496 120.461 51.0222 121.703 53.1023C121.688 53.1177 121.68 53.1254 121.664 53.1407C121.695 53.1561 121.719 53.1714 121.75 53.1791C122.479 54.3996 123.178 55.6277 123.838 56.8482C123.884 56.9326 123.923 57.0094 123.97 57.0938C125.406 59.7728 126.671 62.4517 127.765 65.1152C126.05 63.1348 124.233 61.1544 122.309 59.1894C121.897 58.7672 121.47 58.345 121.043 57.9229C120.384 57.2704 119.724 56.6179 119.041 55.9732C116.215 53.2789 113.212 50.623 110.022 48.0362C109.261 47.4221 108.492 46.8157 107.732 46.2247C106.505 45.2729 105.271 44.3441 104.037 43.446C98.6892 39.5466 93.3025 36.1768 88.0322 33.3751C87.9391 33.3291 87.8537 33.283 87.7606 33.2293C85.6881 32.1316 83.6235 31.1184 81.5977 30.2049C80.8059 29.8518 80.0298 29.5064 79.2458 29.184C74.7362 27.2727 70.3818 25.845 66.3146 24.9162Z" fill="url(#paint1_linear)"/>
<defs>
<linearGradient id="paint0_linear" x1="95.9744" y1="91.3642" x2="114.177" y2="23.3636" gradientUnits="userSpaceOnUse">
<stop offset="0.0295" stop-color="#DADEED"/>
<stop offset="0.9996" stop-color="#868C92"/>
</linearGradient>
<linearGradient id="paint1_linear" x1="154.135" y1="76.5884" x2="102.054" y2="24.9576" gradientUnits="userSpaceOnUse">
<stop stop-color="#EF8396"/>
<stop offset="0.5305" stop-color="#F29F99"/>
<stop offset="1" stop-color="#F5B99C"/>
</linearGradient>
</defs>
</svg>
