<svg width="61" height="32" viewBox="0 0 61 32" fill="none" xmlns="http://www.w3.org/2000/svg">
<path d="M60.9872 15.3658C60.8142 14.6478 60.5258 13.9779 60.1476 13.3657C59.4907 12.7279 58.4396 12.1637 56.9943 11.8945C56.5873 11.8176 56.2572 11.7791 55.9912 11.7631C55.9143 11.2406 55.7829 10.7374 55.6099 10.2566C55.5586 10.247 55.5105 10.231 55.4593 10.2245C54.4274 7.46162 51.8444 5.42628 48.7327 5.14101C48.6879 5.1346 48.643 5.12819 48.5982 5.12178C48.595 5.11857 48.5885 5.11537 48.5853 5.11216C48.4924 5.10896 48.3995 5.10255 48.3033 5.10255C47.9252 5.10255 47.5567 5.1378 47.1945 5.18909C45.5345 3.51274 43.3265 2.38449 40.8622 2.08319C40.4808 2.04473 40.0995 2.01588 39.7117 2.00627C39.5611 2.00306 39.4105 2.00306 39.2599 2.00627C38.6093 2.00947 37.9684 2.05435 37.3339 2.14089C37.2025 2.15691 37.0711 2.17294 36.9397 2.19538C35.0746 0.999816 32.8667 0.291456 30.4984 0.246582C28.1302 0.291456 25.9222 0.999816 24.0571 2.19538C23.9258 2.17294 23.7944 2.16012 23.663 2.14089C23.6277 2.16332 23.5893 2.18256 23.554 2.20499C23.288 2.15051 23.0156 2.11525 22.7433 2.07999C22.4132 2.04152 22.0767 2.01588 21.737 2.00627C21.6409 2.00306 21.5447 1.99665 21.4486 1.99665C21.0031 1.99665 20.5673 2.03191 20.1347 2.08319C17.6703 2.38449 15.4623 3.50953 13.8024 5.18909C13.4402 5.1378 13.0717 5.10255 12.6936 5.10255C12.5974 5.10255 12.5045 5.10896 12.4115 5.11216C12.184 5.12178 11.9565 5.14101 11.7322 5.16665C8.78391 5.53205 6.35801 7.54495 5.38701 10.2566C5.21396 10.7406 5.08257 11.2406 5.00566 11.7631C4.73968 11.7791 4.41281 11.8176 4.00261 11.8945C2.55412 12.1637 1.50621 12.7279 0.849266 13.3657C0.628147 13.5805 0.45189 13.8016 0.3205 14.0196C0.0897671 14.4074 -0.00957172 14.8626 0.00965602 15.3626C0.00965602 15.3658 0.00965602 15.369 0.00965602 15.3722C0.121818 18.3691 4.4801 23.161 10.8349 26.9624C12.9595 28.2349 15.0778 29.2574 17.055 30.0074C18.0549 30.3856 19.0163 30.6933 19.9264 30.9305C19.9905 30.9465 20.0514 30.9626 20.1155 30.9786C20.2244 31.0074 20.3334 31.0299 20.4423 31.0555C20.5449 31.078 20.6474 31.1036 20.75 31.126H20.7532C20.9198 31.1613 21.0865 31.1966 21.2499 31.2286C21.314 31.2414 21.3749 31.251 21.439 31.2607C21.5063 31.2735 21.5736 31.2863 21.6409 31.2959C21.8556 31.3312 22.0671 31.3632 22.2722 31.3889C22.3459 31.3985 22.4196 31.4049 22.4933 31.4113C22.6567 31.2062 22.8234 30.9978 22.99 30.7927C23.0124 30.7991 23.0349 30.8023 23.0605 30.8087C23.0381 30.8023 23.0188 30.7959 22.9964 30.7863C24.1565 29.3728 25.4447 27.9592 26.8548 26.5617C27.3387 26.081 27.8354 25.6034 28.3481 25.129C28.4186 25.0649 28.4891 25.0008 28.5596 24.9367C29.1845 24.3597 29.8383 23.7924 30.5016 23.2283C30.7837 22.9879 31.0625 22.7475 31.3509 22.5103C31.5752 22.3244 31.8027 22.1513 32.0303 21.9718C32.2802 21.7731 32.5302 21.5712 32.7801 21.3788C33.1102 21.1224 33.4403 20.8788 33.7704 20.632C34.2286 20.2923 34.6869 19.9589 35.1483 19.6352C35.1932 19.6031 35.2381 19.5711 35.283 19.539C36.1129 18.9589 36.9429 18.4172 37.7697 17.8979C38.2953 17.571 38.8176 17.2505 39.3368 16.9492C39.8111 16.6735 40.2822 16.4075 40.7532 16.1543C40.9327 16.0581 41.1122 15.9588 41.2916 15.8626C41.5929 15.7055 41.8909 15.5517 42.1921 15.4042C42.253 15.3722 42.3171 15.3401 42.378 15.3081C42.9837 15.0068 43.5861 14.7311 44.179 14.4683C44.2943 14.417 44.4097 14.3625 44.5219 14.3145C45.8165 13.7567 47.0728 13.3016 48.2841 12.933C48.4796 12.8753 48.6751 12.8112 48.8673 12.7567C48.9026 12.7471 48.9378 12.7375 48.9763 12.7279C49.4217 12.6028 49.8608 12.4971 50.2934 12.4009C50.4472 12.3657 50.601 12.3304 50.7517 12.2984C51.8605 12.074 52.9084 11.949 53.8922 11.9169C54.03 11.9137 54.171 11.9041 54.3088 11.9041C54.3793 11.9041 54.4498 11.9041 54.5203 11.9073C54.8792 11.9105 55.2285 11.9265 55.5618 11.9586C55.6772 11.9682 55.7861 11.9842 55.8983 12.0003C56.7283 12.106 57.4846 12.3048 58.1543 12.5996C58.8337 12.8977 59.4234 13.2888 59.9169 13.7856C60.0355 13.9042 60.154 14.026 60.2598 14.1574C60.561 14.526 60.7982 14.9331 60.9936 15.369C60.9968 15.3722 60.9968 15.3754 61.0001 15.3818C60.9904 15.3786 60.9904 15.3722 60.9872 15.3658ZM12.9595 26.6098C5.53763 22.1641 1.24984 16.6992 2.86818 13.9971C2.97073 13.8273 3.17262 13.6446 3.40655 13.4715C3.84879 13.1477 4.36794 12.9586 4.90952 12.8785C4.90952 12.8817 4.90952 12.8817 4.90952 12.8849C4.90952 13.8817 5.0986 14.8369 5.44149 15.712C5.72029 16.6319 6.10805 17.5806 6.60156 18.539C8.11735 20.9525 9.86387 23.209 11.8091 25.2732C12.3186 25.8117 12.8378 26.3406 13.3729 26.8534C13.2351 26.7733 13.0973 26.6932 12.9595 26.6098ZM13.7703 27.0842C13.8664 27.1419 13.8985 27.1579 13.7703 27.0842V27.0842ZM14.7637 25.9431C12.6102 24.0937 10.8541 22.0519 9.56584 20.007C8.03724 17.587 7.16878 15.1703 7.07905 13.0772C7.06944 12.8336 7.06623 12.5932 7.07585 12.356C7.08226 12.2086 7.09507 12.0644 7.1111 11.9201C7.23287 10.7662 7.63345 9.74696 8.33527 8.92642C9.05631 8.08664 10.0401 7.54175 11.1938 7.25007C11.5591 7.15712 11.9373 7.0866 12.3346 7.04814C12.3058 7.09622 12.2769 7.1475 12.2481 7.19558C11.652 8.1828 11.2066 9.26938 10.9502 10.4297C10.8092 11.0675 10.7259 11.7246 10.7035 12.4009C10.7003 12.449 10.6971 12.4971 10.6971 12.5484C10.6971 12.6157 10.6875 12.683 10.6875 12.7535C10.6875 12.8785 10.7035 13.0003 10.7067 13.1253C10.7163 13.4266 10.7355 13.7247 10.7676 14.0196C10.774 14.0965 10.7772 14.1734 10.7836 14.2471C10.9791 16.4812 11.4854 18.6287 12.2609 20.6416C13.0973 22.8244 14.2478 24.8501 15.6578 26.6675C15.3598 26.4335 15.0586 26.1996 14.7637 25.9431ZM14.1388 20.6352C14.126 20.6 14.1132 20.5679 14.1004 20.5327C13.3857 18.6672 12.9339 16.8306 12.7673 15.0933C12.7256 14.6574 12.7064 14.2311 12.7 13.808C12.6968 13.5131 12.7032 13.2215 12.716 12.933C12.748 12.2278 12.8346 11.5451 12.9756 10.8944C13.2864 9.45529 13.86 8.16357 14.7157 7.08981C14.7381 7.06096 14.7669 7.03211 14.7894 7.00326C15.0361 6.70197 15.3021 6.4135 15.5969 6.14746C15.7187 6.03528 15.8469 5.93271 15.9751 5.83335C17.4204 4.67304 19.2214 4.05443 21.2275 3.93583C21.2146 3.95186 21.205 3.96788 21.1954 3.98391C20.9583 4.30764 20.7275 4.64099 20.5032 4.97754C20.1892 5.37499 19.9072 5.79488 19.6444 6.22759C19.3303 6.74684 19.0515 7.28853 18.8144 7.84945C18.792 7.90074 18.7695 7.94881 18.7471 8.0001C18.7279 8.04818 18.7086 8.09946 18.6894 8.14754C18.6189 8.32703 18.5548 8.50974 18.4907 8.69244C17.978 9.87518 17.5646 11.1092 17.2441 12.3817C17.0711 13.0676 16.9301 13.7632 16.8179 14.4683C16.757 14.8465 16.7025 15.2248 16.6609 15.6094C16.6064 16.0966 16.5647 16.5902 16.5423 17.087C16.5231 17.4845 16.5135 17.8819 16.5135 18.2826C16.5135 18.7377 16.5295 19.1864 16.5519 19.6352C16.6064 20.6032 16.7218 21.5551 16.8852 22.4879C17.2537 24.5969 17.8947 26.613 18.7759 28.4977C16.7218 25.9624 15.1611 23.2732 14.1388 20.6352ZM21.2146 18.3659C21.0672 18.898 20.9326 19.4397 20.8141 19.9878C20.7724 20.1769 20.734 20.3692 20.6955 20.5583C20.5096 21.5006 20.3622 22.4654 20.2661 23.4462C20.1892 24.1995 20.1379 24.9623 20.1187 25.7348C20.0994 26.5169 20.1091 27.2925 20.1475 28.0586C19.8623 27.2124 19.6091 26.3438 19.3944 25.4463C19.215 24.6963 19.0708 23.9527 18.9522 23.2123C18.6894 21.5647 18.5708 19.9429 18.5901 18.3787C18.5933 18.2313 18.5965 18.087 18.6029 17.9396C18.6125 17.6319 18.6253 17.3306 18.6445 17.0293C18.6509 16.9299 18.6574 16.8274 18.6638 16.728C18.699 16.2793 18.7535 15.8434 18.8112 15.4074C18.9073 14.6734 19.0291 13.9587 19.1861 13.2663C19.4169 12.2599 19.7053 11.2951 20.0578 10.388C20.2404 9.92005 20.4391 9.4649 20.6538 9.02899C20.7115 8.9136 20.7724 8.80462 20.8301 8.69244C21.1057 8.16036 21.4069 7.65393 21.7306 7.17955C22.5478 5.97758 23.5027 4.95831 24.5923 4.16661C24.634 4.13776 24.6756 4.11212 24.7173 4.08327C25.2204 3.7307 25.746 3.41658 26.2972 3.16337C26.8548 2.90695 27.438 2.6986 28.0437 2.55437C28.8545 2.36205 29.6781 2.28513 30.4984 2.30756C31.6553 2.33962 32.8122 2.57039 33.9466 2.99028C32.7449 3.44222 31.5912 4.04161 30.4984 4.7692C30.1299 5.0128 29.771 5.27242 29.4153 5.54808C29.364 5.58654 29.3127 5.62821 29.2615 5.66988C29.2038 5.71475 29.1461 5.76603 29.0884 5.81411C27.7905 6.86544 26.5952 8.10908 25.5281 9.51298C25.1852 9.96492 24.8583 10.4329 24.5443 10.9169C24.4641 11.0387 24.384 11.1573 24.3071 11.2791C23.5861 12.4298 22.9548 13.6702 22.4068 14.9779C22.1376 15.619 21.8908 16.2793 21.6633 16.9524C21.5063 17.4171 21.3492 17.8851 21.2146 18.3659ZM21.5447 28.2734C21.5479 28.0746 21.5447 27.8791 21.5511 27.6804C21.5896 26.2476 21.7146 24.8501 21.9133 23.4879C21.9838 23.0007 22.0639 22.5167 22.1536 22.0423C22.2049 21.7667 22.2626 21.4942 22.3202 21.225C22.4484 20.632 22.5862 20.0487 22.7433 19.4781C22.8907 18.9396 23.0573 18.4204 23.2304 17.9011C23.4547 17.2216 23.6982 16.5581 23.961 15.9171C24.477 14.6606 25.0634 13.4747 25.7171 12.3753C25.7973 12.2439 25.8774 12.1189 25.9575 11.9874C26.2619 11.497 26.5824 11.0227 26.9125 10.5675C27.97 9.11873 29.1525 7.86548 30.4311 6.84941C30.4536 6.83339 30.476 6.81736 30.4952 6.79813C30.6298 6.69235 30.7612 6.58658 30.899 6.48722C31.1169 6.32695 31.3381 6.1699 31.5656 6.02246C31.6777 5.94873 31.7931 5.87822 31.9053 5.8077C33.2672 4.96472 34.7125 4.37495 36.2187 4.08648C36.2379 4.08327 36.2571 4.08007 36.2764 4.07686C37.0583 3.93263 37.8563 3.86211 38.667 3.88455C38.8016 3.88775 38.933 3.90058 39.0644 3.91019C39.3112 3.92622 39.5547 3.94865 39.7983 3.98071C41.2852 4.16982 42.7113 4.6442 44.0508 5.37499C43.1695 5.57693 42.2658 5.8654 41.3493 6.22439C41.2211 6.27567 41.0897 6.32375 40.9615 6.37824C40.5545 6.54812 40.1412 6.73402 39.731 6.93595C39.5771 7.00967 39.4201 7.09622 39.2663 7.17635C38.0037 7.8206 36.7314 8.59948 35.4688 9.50978C35.4464 9.5258 35.4272 9.53862 35.4047 9.55465C34.9625 9.87517 34.5202 10.2181 34.0812 10.5707C33.4403 11.0836 32.8026 11.6285 32.1745 12.2054C31.6072 12.7279 31.0496 13.2824 30.4984 13.8561C30.444 13.9138 30.3863 13.9683 30.3318 14.026C30.0017 14.3754 29.6781 14.7408 29.3544 15.103C29.2294 15.244 29.1012 15.3722 28.9795 15.5164C28.502 16.0709 28.0309 16.6447 27.5694 17.2409C27.3803 17.4845 27.2009 17.7281 27.0214 17.9717C26.6144 18.523 26.2235 19.0775 25.8517 19.6352C25.5024 20.1608 25.1627 20.6865 24.8455 21.2154C24.5346 21.7314 24.243 22.2475 23.9642 22.7635C23.8873 22.9078 23.804 23.052 23.7303 23.1962C23.7175 23.2219 23.7046 23.2475 23.6918 23.2732C22.8073 24.9591 22.0927 26.6355 21.5447 28.2734ZM50.0434 10.4329C49.8992 10.4585 49.7582 10.481 49.6108 10.5098C49.4025 10.5515 49.1878 10.6028 48.9731 10.6508C48.6622 10.7214 48.3418 10.8111 48.0213 10.8944C46.6562 11.2631 45.2269 11.7567 43.7496 12.3817C43.7079 12.3977 43.6694 12.4137 43.6278 12.4298C43.3073 12.5676 42.9837 12.7086 42.6568 12.8561C42.378 12.9843 42.0928 13.1221 41.8108 13.2599C41.25 13.5324 40.6827 13.8144 40.1123 14.1189C40.0739 14.1382 40.0386 14.1574 40.0001 14.1798C39.5323 14.4298 39.0612 14.6991 38.5901 14.9715C38.0742 15.2728 37.555 15.5869 37.0327 15.9107C36.0136 16.5485 34.9945 17.2344 33.9755 17.9684C33.78 18.1095 33.5877 18.2409 33.3922 18.3819C33.1294 18.5742 32.8667 18.7794 32.6071 18.9781C32.3603 19.1672 32.1136 19.3467 31.8668 19.5422C31.5496 19.7922 31.2355 20.0423 30.9215 20.2987C30.7772 20.4173 30.6426 20.5423 30.4984 20.6609C29.9793 21.0936 29.4633 21.5263 28.9698 21.9686C28.361 22.5103 27.7681 23.0616 27.1977 23.6129C26.9189 23.8822 26.6433 24.1546 26.3709 24.427C26.1946 24.6033 26.0216 24.7796 25.8485 24.9559C25.0538 25.7765 24.3007 26.6034 23.5957 27.4304C24.0475 26.3181 24.5699 25.1995 25.1627 24.0809C25.182 24.0456 25.198 24.0136 25.2172 23.9783C25.4896 23.4655 25.778 22.9558 26.0793 22.4462C26.0921 22.4398 26.1017 22.4334 26.1145 22.4302C26.1081 22.4238 26.1049 22.4206 26.0985 22.4141C26.4542 21.8148 26.8356 21.2186 27.2265 20.6256C27.406 20.3564 27.579 20.0871 27.7649 19.8211C27.9668 19.5326 28.1783 19.257 28.3866 18.9749C28.9346 18.2345 29.4922 17.5165 30.0658 16.8338C30.2068 16.6671 30.351 16.5101 30.4952 16.3466C30.6875 16.1254 30.8798 15.9043 31.0753 15.6895C31.2611 15.4844 31.4534 15.2921 31.6425 15.0933C31.7675 14.9619 31.8925 14.8273 32.0174 14.6991C33.0013 13.699 34.0139 12.7984 35.0362 11.9778C35.5073 11.5996 35.9784 11.2406 36.4526 10.9041C36.5456 10.8368 36.6385 10.763 36.7346 10.6989C37.8787 9.90402 39.0292 9.23092 40.17 8.68282C40.4328 8.55461 40.6956 8.4296 40.9551 8.31742C41.2243 8.20203 41.4935 8.08985 41.7595 7.99048C41.7627 7.99369 41.7627 8.0001 41.7659 8.0033C41.7723 7.99689 41.7787 7.98728 41.7851 7.98087C41.9197 7.92958 42.0511 7.89112 42.1825 7.84625C43.5733 7.35264 44.9257 7.06417 46.2075 7.00006C46.2748 6.99685 46.3453 6.98724 46.4126 6.98403C46.9414 6.96801 47.4573 6.99365 47.9604 7.05455C48.2296 7.0866 48.4892 7.14109 48.7488 7.19558C49.7614 7.41354 50.7036 7.80137 51.5432 8.38793C52.2258 8.86552 52.809 9.45208 53.3025 10.1252C52.2867 10.1188 51.1971 10.2245 50.0434 10.4329Z" fill="url(#paint0_linear)"/>
<path d="M0 15.1384C0.195482 14.6961 0.43583 14.2858 0.737065 13.914C0.846022 13.7826 0.961391 13.6608 1.07996 13.5422C1.57347 13.0486 2.16633 12.6544 2.84251 12.3563C3.51548 12.0614 4.26856 11.8627 5.09856 11.7569C5.21072 11.7409 5.32288 11.728 5.43505 11.7152C5.77153 11.6832 6.12083 11.6671 6.47655 11.6639C6.54705 11.6639 6.61755 11.6607 6.68805 11.6607C7.78724 11.6639 8.97616 11.7986 10.242 12.055C10.8188 12.1736 11.4085 12.3178 12.0141 12.4845C12.0494 12.4941 12.0846 12.5037 12.1231 12.5133C13.5107 12.9044 14.9656 13.4236 16.4686 14.0711C17.1736 14.3756 17.8914 14.7057 18.6157 15.0647C18.9746 15.2442 19.3367 15.4269 19.702 15.6192C19.8815 15.7122 20.061 15.8115 20.2404 15.9109C22.0414 16.8853 23.8745 18.0168 25.7107 19.2989C26.5471 19.8822 27.3803 20.4944 28.2135 21.1387C28.691 21.5073 29.1685 21.8823 29.6428 22.2701C30.6138 23.065 31.5431 23.876 32.434 24.6965C32.5045 24.7606 32.575 24.8247 32.6455 24.8888C33.1583 25.3632 33.655 25.8408 34.1389 26.3216C35.5489 27.7191 36.8404 29.1358 37.9972 30.5461C37.9748 30.5525 37.9556 30.5589 37.9331 30.5685C37.9556 30.5653 37.978 30.5589 38.0036 30.5525C38.1735 30.7577 38.3369 30.966 38.5004 31.1711C38.5741 31.1615 38.6478 31.1583 38.7215 31.1487C38.9266 31.1231 39.1381 31.091 39.3528 31.0557C39.4201 31.0461 39.4874 31.0333 39.5547 31.0205C39.6188 31.0077 39.6797 30.9981 39.7438 30.9884C39.9072 30.9564 40.0738 30.9243 40.2405 30.8859H40.2437C40.3462 30.8634 40.4488 30.841 40.5513 30.8153C40.6603 30.7897 40.7692 30.7641 40.8782 30.7384C40.9423 30.7224 41.0032 30.7064 41.0673 30.6903C41.9774 30.4564 42.942 30.1454 43.9386 29.7672C45.9159 29.0172 48.0341 27.9947 50.1588 26.7222C57.5807 22.2765 62.2883 16.4814 60.6699 13.7794C60.1444 12.9012 58.9202 12.0101 56.9878 11.6543C56.5808 11.5774 56.2508 11.5389 55.9848 11.5229C55.4849 8.07084 52.7321 5.35599 49.2583 4.92648C48.9442 4.88802 48.6238 4.86238 48.2969 4.86238C47.9188 4.86238 47.5502 4.89763 47.1881 4.94892C45.2397 2.97769 42.535 1.75648 39.5451 1.75648C39.106 1.75648 38.6766 1.79174 38.2504 1.84302C37.978 1.87508 37.7056 1.91354 37.4396 1.96803C35.5072 0.724388 33.2063 0 30.7388 0C28.2776 0 25.9831 0.721183 24.0539 1.95841C23.147 1.81418 22.2209 1.74687 21.2819 1.77251C18.042 1.85905 15.0169 2.98089 12.3987 4.88481C12.3538 4.89122 12.309 4.89763 12.2641 4.90405C9.15241 5.18931 6.56948 7.22465 5.5376 9.98759C4.56018 10.1478 3.65007 10.51 2.85853 11.0389C1.44209 11.9716 0.406987 13.4332 0 15.1384ZM25.5921 9.30807C24.1533 8.26315 22.7016 7.38812 21.2659 6.68937C20.8525 6.49065 20.4423 6.30154 20.0353 6.13166C18.9842 5.69574 17.9491 5.35919 16.9461 5.12841C18.5035 4.27902 20.1763 3.77259 21.9325 3.66361C22.0638 3.65399 22.1952 3.64117 22.3298 3.63797C23.1598 3.61553 23.977 3.68605 24.7814 3.8399C26.4125 4.15081 27.9764 4.8143 29.4345 5.77267C29.6588 5.92011 29.8799 6.07717 30.101 6.23743C30.2581 6.35282 30.4151 6.47462 30.5689 6.59963C32.3539 8.01956 33.953 9.89143 35.2829 12.1255C36.5295 14.2121 37.539 16.6129 38.2568 19.2283C38.4138 19.7989 38.5516 20.3854 38.6798 20.9752C38.7375 21.2477 38.7952 21.5201 38.8465 21.7926C38.9362 22.2701 39.0163 22.7509 39.0868 23.2381C39.2855 24.5971 39.4105 25.9978 39.4489 27.4306C39.4553 27.6293 39.4521 27.8248 39.4553 28.0236C38.9073 26.3825 38.1927 24.7061 37.3147 23.0266C37.3018 23.0009 37.289 22.9753 37.2762 22.9496C37.1993 22.8054 37.1192 22.6612 37.0423 22.5169C36.7635 22.0009 36.4686 21.4848 36.161 20.9688C35.3534 19.629 34.4433 18.2956 33.4371 16.9911C32.9788 16.3981 32.5077 15.8244 32.027 15.2666C31.5848 14.7506 31.1329 14.257 30.6747 13.7762C30.069 13.1384 29.4537 12.5326 28.8288 11.9556C27.7617 10.9812 26.6817 10.0966 25.5921 9.30807ZM34.6997 2.91358C35.2989 3.18923 35.8694 3.52258 36.4077 3.91362C38.0165 5.08354 39.3496 6.75027 40.3462 8.776C40.5609 9.21191 40.7564 9.66706 40.9423 10.135C41.6825 12.0325 42.16 14.1801 42.3363 16.475C42.3427 16.5744 42.3491 16.677 42.3555 16.7763C42.3747 17.0776 42.3876 17.3821 42.3972 17.6866C42.4004 17.8341 42.4068 17.9783 42.41 18.1257C42.4292 19.6899 42.3139 21.3118 42.0479 22.9593C41.9293 23.6997 41.7851 24.4433 41.6056 25.1933C41.3909 26.0908 41.1378 26.9594 40.8526 27.8056C40.8878 27.0396 40.9006 26.2671 40.8814 25.4818C40.8622 24.7093 40.8109 23.9465 40.734 23.1932C40.6346 22.2092 40.4904 21.2477 40.3046 20.3053C40.2661 20.113 40.2277 19.9239 40.186 19.7348C40.0674 19.1867 39.9328 18.645 39.7854 18.1129C39.0644 15.5231 38.0133 13.1319 36.6962 11.0261C35.3118 8.81125 33.6325 6.91054 31.7418 5.41689C31.6905 5.37522 31.6393 5.33676 31.588 5.29509C30.1812 4.2053 28.6622 3.33988 27.0599 2.73729C28.9987 2.01931 31.0047 1.83661 32.9628 2.30138C33.5588 2.45202 34.1421 2.65716 34.6997 2.91358ZM45.0218 5.58676C45.15 5.68933 45.2781 5.7919 45.3999 5.90088C45.7204 6.19256 46.0152 6.50667 46.2812 6.84323C47.6848 8.60291 48.3354 10.9363 48.2969 13.5614C48.2905 13.9845 48.2713 14.4108 48.2296 14.8468C48.063 16.584 47.6111 18.4206 46.8965 20.2861C46.8837 20.3213 46.8708 20.3534 46.858 20.3886C45.8325 23.0266 44.2751 25.7126 42.2209 28.2511C43.099 26.3665 43.7399 24.3535 44.1117 22.2413C44.2751 21.3053 44.3905 20.3566 44.4449 19.3886C44.4706 18.9399 44.4834 18.4911 44.4834 18.036C44.4834 17.6353 44.4738 17.2347 44.4546 16.8404C44.4289 16.3436 44.3873 15.8532 44.336 15.3628C44.07 12.93 43.4419 10.6062 42.5061 8.44585C42.4452 8.26315 42.378 8.08046 42.3075 7.90096C42.2882 7.85288 42.269 7.8016 42.2498 7.75352C41.8075 6.65732 41.2147 5.64125 40.4936 4.72776C40.2597 4.37518 40.0194 4.02901 39.7694 3.68925C41.7755 3.80785 43.5733 4.42646 45.0218 5.58676ZM53.921 12.1095C53.9306 12.3434 53.9274 12.5838 53.9178 12.8306C53.8281 14.9237 52.9596 17.3404 51.431 19.7604C50.1428 21.8022 48.3866 23.8471 46.2331 25.6966C45.9383 25.9498 45.6371 26.187 45.339 26.4241C46.7459 24.6068 47.8963 22.581 48.7359 20.3983C49.5082 18.3854 50.0146 16.2378 50.2133 14.0038C50.2197 13.9268 50.2261 13.8499 50.2293 13.7762C50.2645 13.4813 50.2806 13.1832 50.2902 12.8819C50.2934 12.7569 50.3094 12.6351 50.3094 12.5101C50.3094 12.4396 50.2998 12.3755 50.2998 12.305C50.2613 10.2857 49.6653 8.40419 48.6622 6.80476C49.0596 6.84323 49.4377 6.91374 49.8031 7.00669C50.9567 7.29837 51.9406 7.84327 52.6616 8.68305C53.4531 9.60295 53.8601 10.7761 53.921 12.1095ZM47.6207 26.6036C46.7395 27.1197 47.265 26.812 47.6207 26.6036C48.1559 26.0908 48.6782 25.5619 49.1846 25.0235C51.1298 22.9593 52.8763 20.706 54.3921 18.2892C54.8856 17.3308 55.2734 16.3821 55.5522 15.4622C55.8951 14.5871 56.0841 13.632 56.0841 12.6351C56.0841 12.6319 56.0841 12.6319 56.0841 12.6287C56.6257 12.7088 57.1449 12.898 57.5871 13.2217C57.821 13.3948 58.0229 13.5775 58.1255 13.7474C59.7438 16.4526 55.4592 21.9176 48.0341 26.36C47.8963 26.4434 47.7585 26.5235 47.6207 26.6036ZM12.0238 10.4043C11.809 10.3562 11.5975 10.3049 11.386 10.2632C10.0689 9.9972 8.83195 9.86899 7.69751 9.88181C8.19102 9.20871 8.77426 8.62214 9.45685 8.14456C10.5112 7.40735 11.7193 6.97464 13.0364 6.81117C13.5363 6.75027 14.0523 6.72463 14.5842 6.74066C16.0456 6.78874 17.6062 7.12849 19.2117 7.7407C19.2181 7.74711 19.2245 7.75672 19.2309 7.76313C19.2342 7.75993 19.2342 7.75352 19.2374 7.75031C19.5033 7.85288 19.7725 7.96186 20.0417 8.07725C21.4357 8.67984 22.8554 9.48436 24.2622 10.462C25.8645 11.5742 27.454 12.914 28.9762 14.4621C29.2935 14.7827 29.6043 15.116 29.9152 15.4558C30.2549 15.8276 30.5913 16.2058 30.9246 16.6C31.7194 17.5392 32.4917 18.5328 33.2255 19.5841C33.8248 20.4399 34.3792 21.3054 34.892 22.174C34.8855 22.1804 34.8823 22.1836 34.8759 22.19C34.8887 22.1964 34.8984 22.2028 34.9112 22.206C35.2124 22.7157 35.5008 23.2285 35.7732 23.7381C35.7925 23.7734 35.8085 23.8055 35.8277 23.8407C36.4206 24.9593 36.9429 26.078 37.3948 27.1902C36.6865 26.3632 35.9367 25.5363 35.1419 24.7157C34.9721 24.5395 34.7958 24.3632 34.6196 24.1869C34.3472 23.9144 34.0748 23.642 33.7928 23.3727C32.6263 22.2477 31.3861 21.1387 30.069 20.0585C29.7549 19.8021 29.4377 19.5489 29.1236 19.3021C28.6173 18.9046 28.1078 18.5168 27.5982 18.1418C25.3902 16.5135 23.1662 15.1064 20.9903 13.9365C20.9518 13.9172 20.9166 13.898 20.8781 13.8756C20.0225 13.4172 19.1701 12.9941 18.3337 12.6127C18.0068 12.4652 17.6863 12.321 17.3627 12.1864C15.5008 11.3883 13.703 10.7921 12.0238 10.4043Z" fill="url(#paint1_linear)"/>
<defs>
<linearGradient id="paint0_linear" x1="24.2695" y1="38.1509" x2="31.9452" y2="9.79921" gradientUnits="userSpaceOnUse">
<stop offset="0.0295" stop-color="#DADEED"/>
<stop offset="0.9996" stop-color="#868C92"/>
</linearGradient>
<linearGradient id="paint1_linear" x1="48.282" y1="31.9811" x2="26.5381" y2="10.6678" gradientUnits="userSpaceOnUse">
<stop stop-color="#EF8396"/>
<stop offset="0.5305" stop-color="#F29F99"/>
<stop offset="1" stop-color="#F5B99C"/>
</linearGradient>
</defs>
</svg>
